<?xml version="1.0" encoding="UTF-8" standalone="no"?>
<!-- Created with Inkscape (http://www.inkscape.org/) -->

<svg
   xmlns:dc="http://purl.org/dc/elements/1.1/"
   xmlns:cc="http://creativecommons.org/ns#"
   xmlns:rdf="http://www.w3.org/1999/02/22-rdf-syntax-ns#"
   xmlns:svg="http://www.w3.org/2000/svg"
   xmlns="http://www.w3.org/2000/svg"
   xmlns:sodipodi="http://sodipodi.sourceforge.net/DTD/sodipodi-0.dtd"
   xmlns:inkscape="http://www.inkscape.org/namespaces/inkscape"
   id="svg2987"
   version="1.1"
   inkscape:version="0.48.2 r9819"
   width="300"
   height="378.08661"
   xml:space="preserve"
   sodipodi:docname="Recomendacion_Profesional.pdf"><metadata
     id="metadata2993"><rdf:RDF><cc:Work
         rdf:about=""><dc:format>image/svg+xml</dc:format><dc:type
           rdf:resource="http://purl.org/dc/dcmitype/StillImage" /><dc:title></dc:title></cc:Work></rdf:RDF></metadata><defs
     id="defs2991"><clipPath
       clipPathUnits="userSpaceOnUse"
       id="clipPath3001"><path
         d="M 0,792 612,792 612,0 0,0 0,792 z"
         id="path3003"
         inkscape:connector-curvature="0" /></clipPath><clipPath
       clipPathUnits="userSpaceOnUse"
       id="clipPath3581"><path
         d="M 0,792 612,792 612,0 0,0 0,792 z"
         id="path3583"
         inkscape:connector-curvature="0" /></clipPath><clipPath
       clipPathUnits="userSpaceOnUse"
       id="clipPath3615"><path
         d="M 0,792 612,792 612,0 0,0 0,792 z"
         id="path3617"
         inkscape:connector-curvature="0" /></clipPath><clipPath
       clipPathUnits="userSpaceOnUse"
       id="clipPath3763"><path
         d="M 0,792 612,792 612,0 0,0 0,792 z"
         id="path3765"
         inkscape:connector-curvature="0" /></clipPath></defs><sodipodi:namedview
     pagecolor="#ffffff"
     bordercolor="#666666"
     borderopacity="1"
     objecttolerance="10"
     gridtolerance="10"
     guidetolerance="10"
     inkscape:pageopacity="0"
     inkscape:pageshadow="2"
     inkscape:window-width="1074"
     inkscape:window-height="1043"
     id="namedview2989"
     showgrid="false"
     fit-margin-top="0.5"
     fit-margin-left="0.5"
     fit-margin-right="0.5"
     fit-margin-bottom="0.5"
     inkscape:zoom="0.55573058"
     inkscape:cx="559.63733"
     inkscape:cy="-113.99527"
     inkscape:window-x="838"
     inkscape:window-y="-21"
     inkscape:window-maximized="0"
     inkscape:current-layer="g2995" /><g
     id="g2995"
     inkscape:groupmode="layer"
     inkscape:label="Recomendacion_Profesional"
     transform="matrix(1.25,0,0,-1.25,-46.269996,1225.9152)"><g
       id="g2997"
       transform="matrix(3.7564493,0,0,3.7564493,-103.13531,-1870.6998)"><g
         id="g2999"
         clip-path="url(#clipPath3001)"><g
           id="g3005"
           transform="translate(45.354,697.9619)"><path
             d="m 0,0 c 0,0 -1.965,10.516 3.875,17.266 0,0 -1.649,-0.018 -3.99,1.067 0,0 -3.571,1.772 -3.978,2.924 1.476,0.976 5.518,1.101 7.428,0.445 L 2.22,23.528 c -1.673,-1.346 -7.591,1.582 -9.254,5.035 2.751,0.834 6.364,-0.354 7.307,-0.985 -0.163,0.443 -0.461,1.019 -0.708,1.697 -1.077,-0.586 -6.363,1.79 -7.503,6.838 3.771,0.032 6.093,-2.199 6.812,-2.821 0.263,2.071 1.214,4.625 3.622,6.493 1.664,-3.621 0.212,-9.065 -1.45,-9.989 0.225,-0.706 0.342,-0.954 0.651,-1.655 0.182,1.234 0.81,4.53 3.631,6.369 -0.035,0.632 0.466,0.541 0.012,1.935 -0.183,0.56 0.977,1.901 1.841,2.156 -0.026,0.173 -0.098,0.185 -0.109,0.3 -0.653,0.09 -0.694,0.259 -0.849,0.491 -0.082,0.125 -0.204,0.19 -0.409,0.328 -1.801,1.351 -1.785,2.891 -1.017,4.69 -1.032,0.425 -2.244,2.698 -1.874,4.542 0.916,2.631 1.601,2.39 2.428,4.911 0.123,0.532 0.174,1.6 0.024,2.658 1.673,-0.431 2.081,-2.209 2.081,-2.209 0,0 1.267,1.02 1.609,3.552 0.123,1.227 0.023,1.947 -0.012,3.144 3.19,-3.755 2.847,-7.08 2.847,-7.08 0,0 0.615,0.432 1.337,0.994 -0.518,-2.044 0.245,-5.913 -1.936,-8.412 0.356,-0.389 1.027,-0.764 1.314,-1.224 0.913,-1.288 0.635,-2.083 0.441,-3.124 -0.139,-0.712 0.033,-0.999 -0.256,-1.424 0,0 0.458,0.203 0.862,0.101 0,0 -0.083,0.661 -0.119,1.115 1.487,0.492 1.941,0.971 2.69,1.846 4.005,-1.319 8.094,0.855 11.608,-1.051 3.589,2.278 6.046,-0.102 11.612,0.19 0.465,-0.467 1.465,-0.77 1.931,-0.814 0.674,-3.219 1.162,-6.144 2.341,-9.786 2.553,-1.748 3.314,-4.749 3.345,-6.539 l 0.779,1.336 c -2.908,3.156 -1.419,8.905 -0.661,10.225 2.206,-1.785 3.066,-5.055 3.146,-6.794 1.742,1.536 4.693,2.438 7.084,2.14 -1.894,-4.411 -5.43,-6.455 -8.219,-6.214 l -0.781,-1.512 c 2.655,0.971 5.218,1.188 7.501,0.277 -6.039,-6.342 -9.775,-4.354 -9.851,-4.238 l -1.271,-1.645 c 1.901,0.388 5.253,0.379 7.613,-1.211 0,0 -4.533,-3.448 -8.663,-3.142 0,0 3.534,-5.331 2.358,-14.729 0,0 -2.672,-18.477 -22.864,-19.577 C 18.625,-19.539 3.42,-16.688 0,0 M 7.94,29.187 C 7.655,29.353 7.33,29.661 7.188,29.841 6.896,30.29 7.157,30.947 6.53,31.483 6.124,31.835 6.207,32.124 6.162,32.322 6.17,33.021 5.952,33.204 5.952,33.204 6.821,28.271 4.768,24.489 3.666,24.393 3.968,23.96 4.893,22.511 4.893,22.511 c 0.292,3.591 2.359,6.303 3.047,6.676 m 31.367,-5.053 c -1.854,-0.048 -3.451,0.449 -4.546,0.292 1.545,-0.988 3.226,-2.092 4.449,-3.411 -0.111,0.46 -0.053,0.587 -0.06,1.389 -0.004,0.644 0.056,1.217 0.157,1.73 M 8.769,28.745 c 0.544,-1.562 0.687,-3.751 0.353,-5.738 0.94,0.809 2.607,1.671 2.607,1.671 l -1.191,3.681 c -0.442,0 -1.103,0.09 -1.769,0.386 m 33.903,-4.41 c 0.311,-0.94 0.788,-2.189 0.691,-4.056 0.368,0.46 0.698,0.928 1.258,1.657 -0.808,0.871 -1.126,1.819 -1.366,2.51 l -0.583,-0.111 z"
             style="fill:#ffffff;fill-opacity:1;fill-rule:evenodd;stroke:none"
             id="path3007"
             inkscape:connector-curvature="0" /></g><g
           id="g3009"
           transform="translate(85.2329,722.5493)"><path
             d="M 0,0 C -2.55,0.046 -4.29,0.765 -6.714,0.115 -4.156,-1.151 -1.868,-2.879 0.042,-4.967 -0.113,-4.338 -0.23,-3.503 -0.239,-2.4 -0.244,-1.521 -0.144,-0.699 0,0 M 1.843,0.633 C 2.409,0.704 2.994,0.809 3.628,0.974 3.568,1.314 3.517,1.701 3.489,2.105 3.287,2.285 3.114,2.433 3.096,2.428 2.305,2.243 1.569,2.146 0.876,2.105 1.08,1.842 1.473,1.345 1.843,0.633 M 3.739,0.45 C 3.146,0.296 2.601,0.195 2.083,0.125 2.416,-0.604 2.705,-1.501 2.871,-2.501 3.152,-4.195 2.805,-5.617 2.677,-6.054 c 0.98,1.137 2.268,2.715 3.285,4.26 l 0.163,0.254 c 0.12,0.536 0.263,2.011 0.023,3.635 -0.381,2.599 -1.831,3.838 -1.831,3.838 0,0 -0.482,-1.618 -0.352,-3.787 0.147,-2.46 1.276,-4.237 1.276,-4.237 0,0 -0.355,0.002 -0.632,0.421 -0.263,0.393 -0.62,1.089 -0.87,2.12 m -31.625,15.67 0.214,-1.08 0.096,0.185 c 0.31,0.622 1.675,0.669 1.932,0.264 l 0.121,-0.139 c -0.083,0.523 -0.274,1.665 -0.274,1.665 0,0 0.805,0.317 1.227,0.597 0.53,0.356 0.754,0.663 1.059,1.04 0.934,-0.249 2.021,-0.587 7.312,-0.171 2.551,0.204 4.217,-0.985 4.217,-0.985 0,0 1.072,1.241 3.236,1.202 2.795,-0.053 4.673,-1.101 8.156,-0.837 0.555,-0.656 1.706,-0.694 1.706,-0.694 0,0 0.794,-4.342 1.707,-7.718 0.301,-1.108 0.649,-2.313 0.992,-3.455 0.145,0.638 0.279,1.01 0.279,1.01 0,0 2.084,-1.824 2.485,-4.636 0.203,-1.424 0.088,-2.65 0.021,-3.164 0.779,1.257 1.505,2.54 2.458,4.265 0.383,0.804 0.604,1.989 0.27,3.704 -0.442,2.281 -1.605,3.458 -1.605,3.458 0,0 -0.561,-1.271 -0.512,-3.337 0.062,-2.339 1.171,-4.177 1.171,-4.177 0,0 -0.194,-0.075 -0.438,0.231 -0.327,0.46 -1.092,1.819 -1.187,4.061 -0.106,2.475 0.74,4.496 0.74,4.496 0,0 1.697,-1.671 2.273,-4.404 0.355,-1.706 0.096,-2.916 0.096,-2.916 0,0 0.579,0.981 2.082,1.848 2.419,1.402 4.838,1.272 4.838,1.272 0,0 -0.815,-2.014 -2.75,-3.561 C 12.419,2.862 11.055,2.458 10.23,2.386 9.781,2.312 9.573,2.56 9.573,2.56 c 0,0 2.241,0.383 4.045,1.874 1.59,1.313 2.156,2.598 2.156,2.598 0,0 -1.659,0.132 -3.657,-1.057 C 10.649,5.101 9.847,3.936 9.404,3.108 8.574,1.535 7.915,0.192 7.201,-1.05 c 0.279,0.264 1.161,0.997 2.777,1.418 2.844,0.744 5.166,0.108 5.166,0.108 0,0 -1.406,-1.75 -3.737,-2.92 -1.724,-0.865 -3.141,-1.123 -4.297,-0.997 -0.513,0.09 -0.695,0.402 -0.695,0.402 0,0 1.954,-0.231 4.582,0.975 1.976,0.898 2.846,2.119 2.846,2.119 0,0 -1.666,0.495 -4.004,-0.217 C 8.042,-0.712 6.893,-1.734 6.585,-2.077 6.498,-2.227 6.447,-2.313 6.486,-2.227 5.533,-3.702 4.358,-5.175 3.4,-6.306 c 0.503,0.288 1.416,0.659 2.771,0.761 3.086,0.236 5.473,-0.889 5.473,-0.889 0,0 -1.9,-1.442 -4.524,-2.245 -2.119,-0.644 -3.504,-0.399 -4.198,-0.192 1.992,-3.399 3.125,-7.335 3.125,-11.562 0,-12.658 -10.264,-22.916 -22.919,-22.916 -12.661,0 -22.921,10.258 -22.921,22.916 0,5.118 1.676,9.844 4.511,13.66 -0.751,-0.099 -1.979,-0.079 -3.714,0.623 -2.541,1.026 -4.31,2.626 -4.31,2.626 0,0 2.474,0.915 5.531,0.411 1.341,-0.22 2.217,-0.669 2.693,-0.999 -0.856,1.208 -2.73,4.331 -2.805,4.496 -0.278,0.361 -1.332,1.479 -3.079,2.185 -2.261,0.918 -3.966,0.566 -3.966,0.566 0,0 0.761,-1.288 2.649,-2.363 2.515,-1.424 4.486,-1.367 4.486,-1.367 0,0 -0.209,-0.294 -0.73,-0.337 -1.162,-0.025 -2.553,0.351 -4.193,1.367 -2.218,1.368 -3.466,3.232 -3.466,3.232 0,0 2.362,0.431 5.132,-0.556 1.576,-0.563 2.387,-1.37 2.646,-1.658 -0.606,1.298 -1.147,2.695 -1.836,4.333 -0.37,0.864 -1.064,2.1 -2.452,3.098 -1.883,1.353 -3.551,1.372 -3.551,1.372 0,0 0.453,-1.333 1.919,-2.777 1.674,-1.642 3.868,-2.22 3.868,-2.22 0,0 -0.228,-0.23 -0.668,-0.116 -0.818,0.143 -2.143,0.661 -3.64,2.083 -1.793,1.705 -2.43,3.791 -2.43,3.791 0,0 2.424,-0.086 4.71,-1.693 1.42,-0.997 1.91,-2.021 1.91,-2.021 0,0 -0.147,1.225 0.357,2.891 0.813,2.677 2.643,4.192 2.643,4.192 0,0 0.666,-2.088 0.345,-4.544 -0.291,-2.225 -1.17,-3.51 -1.537,-3.94 -0.269,-0.285 -0.451,-0.19 -0.451,-0.19 0,0 1.262,1.731 1.523,4.06 0.234,2.049 -0.216,3.367 -0.216,3.367 0,0 -1.26,-1.073 -1.9,-3.305 -0.481,-1.68 -0.363,-2.879 -0.056,-3.717 0.801,-1.8 1.416,-3.144 2.081,-4.457 -0.023,0.508 -0.031,1.744 0.298,3.145 0.641,2.771 2.875,4.403 2.875,4.403 0,0 0.576,-2.215 0.199,-4.791 -0.296,-2.04 -1.022,-3.251 -1.464,-3.806 -0.311,-0.394 -0.668,-0.365 -0.668,-0.365 0,0 1.276,1.668 1.637,4.112 0.321,2.142 -0.104,3.541 -0.104,3.541 0,0 -1.466,-0.846 -2.071,-3.397 -0.382,-1.607 -0.368,-3.086 -0.296,-3.625 l 0.14,-0.266 c 0.879,-1.629 2.023,-3.316 2.905,-4.537 -0.09,0.45 -0.312,1.891 0.115,3.556 0.73,2.849 2.572,4.597 2.572,4.597 0,0 0.78,-2.173 0.531,-4.769 -0.087,-0.948 -0.244,-1.697 -0.424,-2.28 1.239,1.032 2.586,1.94 4.028,2.692 -0.499,1.526 -1.287,3.955 -1.424,4.372 -0.951,0.073 -1.453,0.09 -2.398,0.601 -0.661,0.387 -1.085,0.744 -1.106,1.127 -0.022,0.699 -0.061,0.766 -0.313,0.917 -0.422,0.291 -0.669,0.633 -0.568,1.35 0.135,0.472 -0.042,0.513 -0.608,1.193 -0.398,0.574 0.222,1.339 0.132,1.695 -0.195,0.376 -0.329,0.668 -0.19,1.007 0.064,0.365 0.712,1.133 1.322,1.361 0.246,0.098 0.445,0.123 0.634,0.192 l -0.425,1.128 c -0.428,0.008 -0.712,0.1 -0.761,0.267 -0.023,0.073 0,0.154 0.067,0.252 -0.615,0.05 -1.087,0.5 -1.425,1.063 -0.44,0.357 -0.562,0.925 -0.461,1.3 -0.106,0.731 0,1.424 0.497,1.656 l -0.075,0.149 c -0.113,0.403 1.205,1.146 2.813,1.605 1.605,0.461 3.081,0.588 3.2,0.186 l 0.075,-0.276 c 0.302,0.038 0.824,-0.369 1.09,-1.172 0.242,-0.219 0.375,-0.897 0.238,-1.357 -0.026,-0.534 -0.134,-1.082 -0.513,-1.531 0.65,-0.157 0.18,-0.603 -0.171,-0.835 m 7.844,-13.342 c 0.297,-0.061 0.815,-0.132 1.688,-0.091 1.79,0.079 3.819,0.535 5.582,0.558 1.638,0.015 3.104,-0.59 3.089,-0.59 -0.275,1.703 -1.868,11.77 -1.924,12.103 -0.081,0.495 0.144,1.045 0.333,0.047 0.241,-1.259 2.241,-12.197 2.241,-12.197 0.715,0.375 2.203,0.79 3.684,0.74 2.131,-0.073 4.13,-1.198 8.07,-0.468 -1.818,5.965 -3.589,14.403 -3.589,14.403 -3.64,-0.254 -4.469,0.777 -7.929,0.86 -2.226,0.049 -3.037,-1.369 -3.031,-1.369 0,0.005 -1.851,1.323 -4.301,1.133 -4.946,-0.374 -5.905,-0.221 -6.841,0.015 0.51,-3.672 1.214,-10.809 1.376,-12.483 0.308,-0.694 0.696,-1.392 1.151,-2.093 0.113,-0.173 0.25,-0.365 0.401,-0.568"
             style="fill:#173a79;fill-opacity:1;fill-rule:evenodd;stroke:none"
             id="path3011"
             inkscape:connector-curvature="0" /></g><g
           id="g3013"
           transform="translate(86.7061,714.1045)"><path
             d="m 0,0 c 2.256,-3.449 3.564,-7.558 3.564,-11.988 0,-12.101 -9.808,-21.908 -21.909,-21.908 -12.106,0 -21.915,9.807 -21.915,21.908 0,5.434 1.981,10.41 5.258,14.24 -0.116,0.147 -0.406,0.519 -0.805,1.048 -0.524,0.425 -1.706,1.219 -3.35,1.536 -2.529,0.496 -4.279,-0.151 -4.279,-0.151 0,0 1.143,-1.151 3.277,-1.965 2.252,-0.863 3.745,-0.56 4.703,-0.384 0,-0.012 -0.111,-0.38 -0.48,-0.479 l -0.185,-0.053 c -2.958,-3.81 -4.719,-8.596 -4.719,-13.792 0,-12.422 10.07,-22.495 22.495,-22.495 12.421,0 22.49,10.073 22.49,22.495 0,4.338 -1.251,8.422 -3.373,11.853 -0.167,0.158 -0.219,0.38 -0.219,0.389 0.937,-0.259 2.503,-0.703 4.823,-0.039 2.196,0.631 3.436,1.676 3.436,1.676 0,0 -1.691,0.793 -4.248,0.523 C 2.894,2.239 1.652,1.553 1.086,1.175 0.58,0.601 0.096,0.101 0,0"
             style="fill:#ffffff;fill-opacity:1;fill-rule:nonzero;stroke:none"
             id="path3015"
             inkscape:connector-curvature="0" /></g><g
           id="g3017"
           transform="translate(47.1694,702.1162)"><path
             d="M 0,0 C 0,11.706 9.486,21.192 21.191,21.192 32.895,21.192 42.38,11.706 42.38,0 42.38,-11.7 32.895,-21.191 21.191,-21.191 9.486,-21.191 0,-11.7 0,0"
             style="fill:#ffffff;fill-opacity:1;fill-rule:evenodd;stroke:none"
             id="path3019"
             inkscape:connector-curvature="0" /></g><g
           id="g3021"
           transform="translate(53.3965,702.1162)"><path
             d="m 0,0 c 0,8.264 6.701,14.966 14.964,14.966 8.262,0 14.964,-6.702 14.964,-14.966 0,-8.265 -6.702,-14.963 -14.964,-14.963 C 6.701,-14.963 0,-8.265 0,0"
             style="fill:#173a79;fill-opacity:1;fill-rule:evenodd;stroke:none"
             id="path3023"
             inkscape:connector-curvature="0" /></g><g
           id="g3025"
           transform="translate(48.7388,698.3398)"><path
             d="m 0,0 c -0.042,-0.052 -0.05,-0.145 -0.019,-0.272 0.084,-0.348 0.276,-0.603 0.573,-0.77 0.301,-0.165 0.802,-0.165 1.5,0.005 0.417,0.099 0.759,0.243 1.029,0.434 C 3.52,-0.291 3.678,0.096 3.567,0.559 3.532,0.715 3.475,0.808 3.397,0.838 3.347,0.856 3.266,0.854 3.142,0.822 L 0.246,0.126 C 0.128,0.096 0.047,0.049 0,0 m -0.494,1.479 c 0.047,-0.148 0.092,-0.25 0.139,-0.306 0.088,-0.103 0.211,-0.129 0.37,-0.097 l 2.9,0.698 C 3.064,1.811 3.154,1.89 3.193,2.014 3.208,2.088 3.205,2.199 3.185,2.361 L 3.331,2.396 3.765,0.595 C 3.938,-0.133 3.881,-0.728 3.583,-1.204 3.315,-1.637 2.881,-1.926 2.29,-2.065 1.759,-2.192 1.266,-2.125 0.811,-1.866 c -0.509,0.294 -0.848,0.775 -1.01,1.449 l -0.443,1.858 0.148,0.038 z"
             style="fill:#173a79;fill-opacity:1;fill-rule:evenodd;stroke:none"
             id="path3027"
             inkscape:connector-curvature="0" /></g><g
           id="g3029"
           transform="translate(49.4009,694.7705)"><path
             d="m 0,0 0.134,0.07 c 0.089,-0.146 0.167,-0.244 0.241,-0.29 0.106,-0.067 0.237,-0.061 0.388,0.023 L 3.339,1.198 C 3.492,1.284 3.571,1.39 3.571,1.523 3.571,1.6 3.534,1.718 3.458,1.88 L 3.594,1.952 5.258,-1.112 4.186,-1.693 4.117,-1.566 C 4.419,-1.313 4.593,-1.068 4.63,-0.842 4.671,-0.609 4.569,-0.281 4.341,0.146 4.252,0.307 4.181,0.404 4.121,0.433 4.06,0.455 3.984,0.443 3.881,0.386 L 2.653,-0.281 c 0.16,-0.304 0.325,-0.481 0.496,-0.524 0.175,-0.049 0.427,-0.016 0.756,0.087 L 3.979,-0.854 2.188,-1.827 2.112,-1.693 c 0.279,0.203 0.45,0.395 0.512,0.584 0.061,0.181 0.009,0.426 -0.155,0.729 L 1.182,-1.086 C 1.068,-1.146 1.008,-1.211 0.995,-1.293 0.99,-1.372 1.031,-1.502 1.131,-1.685 1.313,-2.023 1.532,-2.26 1.78,-2.408 2.028,-2.552 2.377,-2.606 2.828,-2.579 L 2.908,-2.724 1.688,-3.111 0,0 z"
             style="fill:#173a79;fill-opacity:1;fill-rule:evenodd;stroke:none"
             id="path3031"
             inkscape:connector-curvature="0" /></g><g
           id="g3033"
           transform="translate(53.3599,688.749)"><path
             d="m 0,0 c 0.18,-0.138 0.324,-0.203 0.425,-0.184 0.107,0.024 0.209,0.093 0.31,0.223 L 2.52,2.282 C 2.623,2.416 2.66,2.522 2.63,2.61 2.598,2.703 2.512,2.817 2.366,2.951 L 2.46,3.072 3.653,2.125 2.844,-0.811 2.882,-0.844 5.555,0.616 6.747,-0.334 6.653,-0.457 c -0.17,0.119 -0.305,0.176 -0.404,0.173 -0.092,0 -0.213,-0.089 -0.361,-0.275 L 4.226,-2.651 C 4.088,-2.825 4.023,-2.963 4.041,-3.065 4.055,-3.166 4.142,-3.283 4.297,-3.412 l -0.096,-0.125 -1.574,1.251 0.097,0.123 c 0.143,-0.108 0.269,-0.165 0.371,-0.185 0.108,-0.009 0.217,0.05 0.332,0.194 L 5.268,0.163 5.231,0.187 1.855,-1.668 1.73,-1.571 2.724,2.092 2.705,2.107 1.002,-0.032 c -0.128,-0.16 -0.188,-0.3 -0.188,-0.414 0.003,-0.122 0.102,-0.266 0.294,-0.431 l -0.1,-0.12 -1.103,0.878 L 0,0 z"
             style="fill:#173a79;fill-opacity:1;fill-rule:evenodd;stroke:none"
             id="path3035"
             inkscape:connector-curvature="0" /></g><g
           id="g3037"
           transform="translate(63.2427,686.5166)"><path
             d="m 0,0 c 0.222,-0.535 0.204,-1.096 -0.051,-1.679 -0.254,-0.582 -0.649,-0.978 -1.193,-1.183 -0.527,-0.2 -1.072,-0.179 -1.632,0.067 -0.587,0.257 -0.99,0.661 -1.189,1.221 -0.187,0.523 -0.166,1.047 0.06,1.579 0.255,0.581 0.648,0.98 1.173,1.193 0.534,0.218 1.091,0.203 1.672,-0.047 C -0.599,0.901 -0.215,0.518 0,0 m -1.613,-2.245 c 0.196,0.234 0.392,0.562 0.577,0.996 0.255,0.588 0.362,1.072 0.318,1.448 -0.048,0.378 -0.22,0.63 -0.524,0.765 -0.42,0.18 -0.814,0.054 -1.185,-0.378 -0.2,-0.231 -0.388,-0.561 -0.575,-0.986 -0.188,-0.423 -0.296,-0.798 -0.328,-1.096 -0.059,-0.562 0.116,-0.934 0.538,-1.114 0.416,-0.179 0.807,-0.061 1.179,0.365"
             style="fill:#173a79;fill-opacity:1;fill-rule:evenodd;stroke:none"
             id="path3039"
             inkscape:connector-curvature="0" /></g><g
           id="g3041"
           transform="translate(63.3354,682.8438)"><path
             d="M 0,0 C 0.228,-0.021 0.375,0 0.449,0.072 0.523,0.144 0.568,0.255 0.593,0.41 L 0.967,3.25 C 0.81,3.48 0.712,3.615 0.673,3.654 0.634,3.698 0.583,3.729 0.505,3.751 L 0.527,3.906 1.799,3.735 3.529,0.938 3.556,0.93 3.792,2.715 C 3.82,2.919 3.802,3.067 3.737,3.164 3.673,3.262 3.534,3.333 3.312,3.38 L 3.332,3.534 4.625,3.363 4.606,3.212 C 4.412,3.203 4.28,3.179 4.208,3.138 4.139,3.09 4.094,2.976 4.071,2.793 L 3.607,-0.741 3.441,-0.719 1.221,2.835 1.182,2.84 0.871,0.482 C 0.847,0.306 0.851,0.168 0.898,0.089 0.958,-0.043 1.114,-0.134 1.36,-0.174 L 1.341,-0.33 -0.019,-0.149 0,0 z"
             style="fill:#173a79;fill-opacity:1;fill-rule:evenodd;stroke:none"
             id="path3043"
             inkscape:connector-curvature="0" /></g><g
           id="g3045"
           transform="translate(68.396,686.207)"><path
             d="M 0,0 3.625,0.346 3.751,-0.864 3.577,-0.879 C 3.479,-0.454 3.287,-0.176 3.001,-0.05 2.844,0.022 2.613,0.042 2.312,0.027 L 2.62,-3.146 c 0.021,-0.221 0.074,-0.367 0.156,-0.429 0.086,-0.068 0.253,-0.088 0.495,-0.061 l 0.016,-0.152 -2.15,-0.207 -0.013,0.149 c 0.238,0.025 0.388,0.074 0.458,0.158 0.071,0.079 0.096,0.231 0.078,0.45 L 1.354,-0.067 C 1.058,-0.102 0.836,-0.171 0.687,-0.269 0.417,-0.456 0.281,-0.763 0.285,-1.199 L 0.111,-1.212 0,0 z"
             style="fill:#173a79;fill-opacity:1;fill-rule:evenodd;stroke:none"
             id="path3047"
             inkscape:connector-curvature="0" /></g><g
           id="g3049"
           transform="translate(73.8149,682.7705)"><path
             d="m 0,0 -0.052,0.146 c 0.159,0.062 0.27,0.126 0.326,0.188 0.082,0.101 0.097,0.229 0.037,0.395 L -0.665,3.488 C -0.722,3.653 -0.818,3.746 -0.947,3.765 -1.024,3.779 -1.147,3.761 -1.313,3.71 L -1.366,3.854 1.921,5.021 2.328,3.871 2.188,3.818 C 1.984,4.162 1.777,4.368 1.556,4.443 1.328,4.521 0.991,4.473 0.532,4.314 0.356,4.251 0.254,4.191 0.218,4.135 0.183,4.088 0.185,4.006 0.224,3.898 L 0.694,2.581 C 1.018,2.691 1.217,2.826 1.289,2.987 1.361,3.149 1.37,3.406 1.317,3.751 L 1.463,3.8 2.143,1.872 2.001,1.825 C 1.841,2.136 1.679,2.333 1.505,2.419 1.338,2.512 1.088,2.497 0.76,2.382 L 1.25,0.998 C 1.295,0.879 1.351,0.805 1.43,0.786 1.508,0.765 1.648,0.791 1.837,0.857 2.202,0.982 2.475,1.16 2.654,1.383 2.836,1.604 2.947,1.943 2.989,2.394 L 3.146,2.449 3.331,1.18 0,0 z"
             style="fill:#173a79;fill-opacity:1;fill-rule:evenodd;stroke:none"
             id="path3051"
             inkscape:connector-curvature="0" /></g><g
           id="g3053"
           transform="translate(79.1997,687.8047)"><path
             d="M 0,0 C 0.087,0.188 0.023,0.438 -0.19,0.756 -0.32,0.951 -0.447,1.088 -0.576,1.166 -0.796,1.298 -1.033,1.279 -1.278,1.112 -1.416,1.025 -1.492,0.951 -1.51,0.885 -1.53,0.825 -1.512,0.761 -1.467,0.682 l 0.852,-1.288 C -0.288,-0.379 -0.082,-0.178 0,0 m -0.809,-3.051 c 0.165,0.123 0.261,0.234 0.285,0.329 0.024,0.098 -0.022,0.236 -0.147,0.426 l -1.475,2.233 C -2.275,0.128 -2.396,0.232 -2.512,0.243 -2.583,0.247 -2.713,0.202 -2.895,0.101 l -0.089,0.131 1.627,1.077 c 0.336,0.22 0.632,0.363 0.884,0.432 0.499,0.125 0.876,0 1.119,-0.368 C 0.828,1.101 0.869,0.813 0.771,0.524 0.696,0.303 0.583,0.118 0.43,-0.025 l 1.969,-0.769 c 0.054,-0.021 0.1,-0.026 0.139,-0.019 0.038,0.01 0.084,0.03 0.131,0.057 l 0.082,-0.123 -1.033,-0.682 -2.093,0.883 -0.134,-0.087 0.658,-0.991 c 0.119,-0.175 0.225,-0.277 0.324,-0.298 0.1,-0.024 0.241,0.021 0.424,0.132 l 0.084,-0.125 -1.706,-1.133 -0.084,0.129 z"
             style="fill:#173a79;fill-opacity:1;fill-rule:evenodd;stroke:none"
             id="path3055"
             inkscape:connector-curvature="0" /></g><g
           id="g3057"
           transform="translate(82.2051,690.7852)"><path
             d="M 0,0 C 0.028,0.202 -0.102,0.427 -0.391,0.676 -0.566,0.829 -0.73,0.924 -0.874,0.958 -1.124,1.024 -1.345,0.944 -1.536,0.721 -1.641,0.593 -1.694,0.5 -1.698,0.434 -1.702,0.373 -1.665,0.311 -1.596,0.246 l 1.17,-0.995 C -0.171,-0.448 -0.032,-0.195 0,0 m 0.065,-3.158 c 0.123,0.164 0.185,0.296 0.18,0.395 0,0.104 -0.088,0.224 -0.256,0.371 l -2.038,1.736 c -0.175,0.155 -0.319,0.218 -0.43,0.194 -0.076,-0.01 -0.187,-0.089 -0.333,-0.241 l -0.119,0.106 1.262,1.48 c 0.267,0.305 0.509,0.523 0.738,0.66 0.446,0.256 0.834,0.24 1.175,-0.045 C 0.493,1.28 0.61,1.02 0.6,0.712 0.586,0.481 0.528,0.273 0.424,0.089 l 2.101,-0.191 c 0.056,-0.004 0.102,0 0.14,0.02 0.034,0.019 0.071,0.05 0.111,0.087 l 0.108,-0.093 -0.802,-0.942 -2.257,0.272 -0.102,-0.118 0.902,-0.77 c 0.162,-0.139 0.295,-0.208 0.398,-0.204 0.101,0.005 0.221,0.093 0.37,0.25 L 1.507,-1.701 0.182,-3.255 0.065,-3.158 z"
             style="fill:#173a79;fill-opacity:1;fill-rule:evenodd;stroke:none"
             id="path3059"
             inkscape:connector-curvature="0" /></g><g
           id="g3061"
           transform="translate(85.5083,691.3633)"><path
             d="m 0,0 -0.14,0.064 c 0.07,0.159 0.102,0.282 0.098,0.366 -0.009,0.125 -0.096,0.231 -0.25,0.301 l -2.641,1.262 c -0.162,0.08 -0.294,0.08 -0.398,0 C -3.395,1.947 -3.469,1.851 -3.548,1.698 L -3.691,1.758 -2.188,4.902 -1.087,4.38 -1.152,4.246 C -1.539,4.348 -1.837,4.343 -2.042,4.24 -2.253,4.136 -2.46,3.862 -2.67,3.427 -2.753,3.259 -2.786,3.141 -2.771,3.081 -2.756,3.016 -2.702,2.966 -2.598,2.914 l 1.266,-0.601 c 0.15,0.31 0.193,0.544 0.133,0.712 -0.064,0.167 -0.238,0.351 -0.523,0.556 L -1.652,3.723 0.191,2.84 0.129,2.701 C -0.204,2.813 -0.458,2.835 -0.649,2.773 -0.829,2.72 -0.996,2.534 -1.144,2.221 L 0.18,1.591 C 0.293,1.531 0.387,1.526 0.459,1.564 0.527,1.605 0.605,1.719 0.692,1.901 0.859,2.253 0.929,2.565 0.898,2.854 0.869,3.136 0.707,3.456 0.42,3.803 L 0.489,3.956 1.521,3.192 0,0 z"
             style="fill:#173a79;fill-opacity:1;fill-rule:evenodd;stroke:none"
             id="path3063"
             inkscape:connector-curvature="0" /></g><g
           id="g3065"
           transform="translate(83.9937,698.6299)"><path
             d="m 0,0 0.15,-0.035 c -0.033,-0.201 -0.048,-0.34 -0.042,-0.4 0.006,-0.06 0.042,-0.099 0.101,-0.117 0.028,0 0.058,-0.003 0.093,0 0.034,0 0.097,0.015 0.19,0.035 l 1.579,0.424 0.012,0.05 -0.897,0.866 C 1.13,0.874 1.061,0.934 0.98,0.998 0.856,1.098 0.76,1.155 0.691,1.172 0.587,1.193 0.51,1.17 0.455,1.096 0.417,1.041 0.376,0.919 0.318,0.735 L 0.168,0.771 0.455,2.067 0.607,2.034 C 0.605,1.937 0.607,1.854 0.617,1.798 0.64,1.715 0.682,1.646 0.744,1.576 L 2.333,0.045 3.418,-0.194 C 3.646,-0.246 3.798,-0.241 3.882,-0.181 3.96,-0.117 4.03,0.021 4.081,0.23 L 4.233,0.197 3.775,-1.855 3.628,-1.817 c 0.041,0.216 0.037,0.368 -0.019,0.458 -0.053,0.085 -0.182,0.156 -0.4,0.203 L 2.337,-0.967 0.141,-1.604 C -0.005,-1.649 -0.113,-1.717 -0.191,-1.81 -0.239,-1.869 -0.274,-1.938 -0.285,-2.01 L -0.439,-1.976 0,0 z"
             style="fill:#173a79;fill-opacity:1;fill-rule:evenodd;stroke:none"
             id="path3067"
             inkscape:connector-curvature="0" /></g><g
           id="g3069"
           transform="translate(49.2061,708.2588)"><path
             d="M 0,0 1.454,3.339 2.576,2.858 2.508,2.7 C 2.084,2.821 1.75,2.791 1.499,2.601 1.364,2.499 1.232,2.308 1.101,2.035 L 4.025,0.768 C 4.228,0.677 4.378,0.652 4.478,0.693 4.575,0.735 4.671,0.871 4.77,1.096 L 4.914,1.035 4.048,-0.944 3.908,-0.881 c 0.098,0.215 0.125,0.371 0.089,0.479 -0.038,0.096 -0.157,0.191 -0.356,0.281 L 0.717,1.146 C 0.606,0.874 0.559,0.649 0.574,0.47 0.602,0.141 0.807,-0.13 1.189,-0.333 L 1.118,-0.491 0,0 z"
             style="fill:#173a79;fill-opacity:1;fill-rule:evenodd;stroke:none"
             id="path3071"
             inkscape:connector-curvature="0" /></g><g
           id="g3073"
           transform="translate(54.2573,709.8032)"><path
             d="M 0,0 -0.128,0.093 C -0.033,0.23 0.023,0.347 0.033,0.43 0.041,0.559 -0.019,0.676 -0.162,0.77 L -2.543,2.474 C -2.689,2.579 -2.82,2.599 -2.937,2.543 -3.007,2.507 -3.095,2.424 -3.206,2.285 l -0.125,0.088 2.027,2.841 0.992,-0.71 -0.086,-0.12 C -0.76,4.546 -1.055,4.597 -1.278,4.53 -1.502,4.463 -1.753,4.232 -2.036,3.836 c -0.11,-0.148 -0.16,-0.26 -0.158,-0.32 0,-0.062 0.048,-0.132 0.14,-0.194 L -0.912,2.507 C -0.71,2.789 -0.625,3.016 -0.658,3.189 -0.694,3.36 -0.829,3.576 -1.074,3.83 L -0.984,3.949 0.684,2.762 0.594,2.641 C 0.287,2.803 0.036,2.875 -0.152,2.843 -0.347,2.822 -0.542,2.668 -0.739,2.386 L 0.452,1.535 C 0.558,1.461 0.647,1.437 0.722,1.461 0.796,1.489 0.897,1.591 1.013,1.753 1.239,2.067 1.36,2.368 1.38,2.654 1.401,2.941 1.296,3.28 1.072,3.672 L 1.17,3.811 2.054,2.875 0,0 z"
             style="fill:#173a79;fill-opacity:1;fill-rule:evenodd;stroke:none"
             id="path3075"
             inkscape:connector-curvature="0" /></g><g
           id="g3077"
           transform="translate(55.9458,717.7432)"><path
             d="M 0,0 C 0.252,0.107 0.388,0.172 0.409,0.187 0.466,0.242 0.491,0.306 0.484,0.375 0.481,0.456 0.461,0.519 0.425,0.575 L 0.55,0.69 1.508,-0.353 1.394,-0.458 c -0.317,0.125 -0.588,0.209 -0.822,0.236 -0.428,0.049 -0.781,-0.045 -1.04,-0.291 -0.3,-0.267 -0.395,-0.593 -0.283,-0.971 0.113,-0.369 0.361,-0.777 0.762,-1.209 0.295,-0.321 0.572,-0.543 0.833,-0.686 0.491,-0.26 0.927,-0.219 1.299,0.124 0.233,0.21 0.387,0.472 0.467,0.782 0.044,0.175 0.07,0.415 0.072,0.721 l 0.236,0.01 C 2.922,-2.095 2.897,-2.376 2.844,-2.582 2.751,-2.957 2.562,-3.271 2.275,-3.535 1.834,-3.939 1.346,-4.147 0.808,-4.157 c -0.593,-0.012 -1.114,0.225 -1.563,0.718 -0.446,0.48 -0.646,1.021 -0.61,1.607 0.042,0.551 0.273,1.026 0.703,1.422 C -0.473,-0.24 -0.254,-0.104 0,0"
             style="fill:#173a79;fill-opacity:1;fill-rule:evenodd;stroke:none"
             id="path3079"
             inkscape:connector-curvature="0" /></g><g
           id="g3081"
           transform="translate(59.2656,715.5371)"><path
             d="m 0,0 c 0.197,0.103 0.308,0.209 0.333,0.306 0.02,0.1 -0.002,0.221 -0.074,0.359 L -1.018,3.23 C -1.276,3.333 -1.434,3.391 -1.489,3.404 -1.545,3.416 -1.607,3.409 -1.679,3.388 L -1.748,3.527 -0.597,4.098 2.401,2.742 2.427,2.758 1.624,4.367 C 1.533,4.547 1.434,4.663 1.328,4.709 1.221,4.755 1.064,4.735 0.854,4.654 L 0.787,4.787 1.952,5.37 2.022,5.231 C 1.864,5.118 1.771,5.025 1.738,4.95 1.702,4.876 1.73,4.755 1.813,4.585 L 3.403,1.398 3.249,1.323 -0.572,3.03 -0.615,3.012 0.445,0.884 C 0.532,0.72 0.61,0.614 0.69,0.57 0.822,0.491 0.996,0.509 1.226,0.611 L 1.295,0.468 0.066,-0.137 0,0 z"
             style="fill:#173a79;fill-opacity:1;fill-rule:evenodd;stroke:none"
             id="path3083"
             inkscape:connector-curvature="0" /></g><g
           id="g3085"
           transform="translate(65.4634,721.4697)"><path
             d="m 0,0 c 0.494,-0.303 0.809,-0.766 0.948,-1.389 0.139,-0.62 0.043,-1.176 -0.274,-1.657 -0.309,-0.476 -0.764,-0.777 -1.353,-0.906 -0.634,-0.142 -1.195,-0.041 -1.688,0.289 -0.456,0.311 -0.751,0.748 -0.875,1.316 -0.134,0.615 -0.056,1.17 0.246,1.651 0.302,0.49 0.762,0.807 1.384,0.943 C -1.018,0.381 -0.476,0.298 0,0 m 0.01,-2.764 c 0.027,0.301 -0.01,0.684 -0.114,1.142 -0.138,0.625 -0.335,1.082 -0.595,1.363 -0.259,0.275 -0.549,0.382 -0.869,0.306 -0.447,-0.103 -0.694,-0.433 -0.74,-1.003 -0.023,-0.3 0.01,-0.679 0.114,-1.131 0.101,-0.457 0.228,-0.82 0.381,-1.083 0.278,-0.487 0.643,-0.683 1.089,-0.583 0.439,0.096 0.687,0.427 0.734,0.989"
             style="fill:#173a79;fill-opacity:1;fill-rule:evenodd;stroke:none"
             id="path3087"
             inkscape:connector-curvature="0" /></g><g
           id="g3089"
           transform="translate(66.6519,718.207)"><path
             d="M 0,0 C 0.167,0.004 0.282,0.027 0.356,0.063 0.476,0.125 0.537,0.245 0.542,0.42 L 0.564,3.35 C 0.564,3.523 0.509,3.644 0.393,3.708 0.33,3.747 0.208,3.771 0.033,3.783 l 0,0.153 L 2.151,3.917 2.146,3.762 C 1.904,3.759 1.737,3.724 1.653,3.663 1.571,3.604 1.535,3.454 1.53,3.209 L 1.503,0.355 C 1.503,0.227 1.535,0.134 1.604,0.088 1.676,0.045 1.813,0.023 2.017,0.023 2.38,0.016 2.682,0.093 2.933,0.252 3.182,0.41 3.4,0.726 3.58,1.188 L 3.76,1.183 3.502,-0.185 0,-0.153 0,0 z"
             style="fill:#173a79;fill-opacity:1;fill-rule:evenodd;stroke:none"
             id="path3091"
             inkscape:connector-curvature="0" /></g><g
           id="g3093"
           transform="translate(74.729,720.626)"><path
             d="m 0,0 c 0.303,-0.491 0.373,-1.053 0.216,-1.668 -0.161,-0.613 -0.491,-1.065 -0.995,-1.353 -0.49,-0.277 -1.031,-0.341 -1.623,-0.194 -0.623,0.167 -1.081,0.507 -1.368,1.026 -0.266,0.488 -0.327,1.009 -0.182,1.566 0.158,0.616 0.481,1.071 0.972,1.362 0.491,0.302 1.042,0.37 1.658,0.216 C -0.731,0.799 -0.289,0.481 0,0 m -1.244,-2.466 c 0.16,0.259 0.3,0.613 0.414,1.067 0.162,0.624 0.191,1.117 0.089,1.485 -0.103,0.362 -0.316,0.586 -0.632,0.671 -0.444,0.116 -0.817,-0.073 -1.116,-0.556 -0.159,-0.26 -0.296,-0.614 -0.413,-1.06 -0.116,-0.456 -0.168,-0.834 -0.152,-1.14 0.029,-0.56 0.26,-0.902 0.702,-1.018 0.444,-0.11 0.81,0.071 1.108,0.551"
             style="fill:#173a79;fill-opacity:1;fill-rule:evenodd;stroke:none"
             id="path3095"
             inkscape:connector-curvature="0" /></g><g
           id="g3097"
           transform="translate(76.7109,719.7275)"><path
             d="m 0,0 c 0.558,0.16 1.105,0.086 1.647,-0.23 0.215,-0.13 0.407,-0.299 0.572,-0.505 0.167,-0.205 0.276,-0.324 0.329,-0.357 0.056,-0.031 0.111,-0.039 0.167,-0.022 0.059,0.022 0.123,0.065 0.192,0.129 L 3.053,-1.067 2.335,-2.286 2.201,-2.209 c 0.033,0.339 0.023,0.623 -0.015,0.854 -0.079,0.424 -0.273,0.727 -0.582,0.912 -0.336,0.196 -0.665,0.196 -0.993,-0.006 -0.323,-0.197 -0.649,-0.569 -0.958,-1.094 -0.254,-0.437 -0.411,-0.866 -0.472,-1.289 -0.055,-0.423 0.123,-0.761 0.532,-1.001 0.223,-0.132 0.398,-0.172 0.533,-0.126 0.073,0.029 0.144,0.095 0.207,0.203 l 0.324,0.547 c 0.092,0.157 0.104,0.291 0.037,0.398 -0.047,0.069 -0.164,0.153 -0.356,0.273 L 0.54,-2.404 2.327,-3.456 2.249,-3.589 C 2.063,-3.489 1.925,-3.456 1.823,-3.487 1.73,-3.517 1.63,-3.621 1.522,-3.801 L 1.131,-4.467 c -0.154,0 -0.386,0.034 -0.684,0.115 -0.302,0.081 -0.609,0.218 -0.931,0.404 -0.58,0.344 -0.936,0.796 -1.066,1.362 -0.119,0.536 -0.029,1.057 0.273,1.574 C -0.969,-0.494 -0.546,-0.156 0,0"
             style="fill:#173a79;fill-opacity:1;fill-rule:evenodd;stroke:none"
             id="path3099"
             inkscape:connector-curvature="0" /></g><g
           id="g3101"
           transform="translate(77.9453,715.0347)"><path
             d="m 0,0 c 0.13,-0.111 0.236,-0.177 0.317,-0.2 0.132,-0.034 0.26,0.017 0.377,0.151 L 2.637,2.145 C 2.753,2.28 2.79,2.407 2.743,2.53 2.715,2.604 2.637,2.705 2.508,2.832 L 2.609,2.947 4.19,1.543 4.088,1.428 C 3.941,1.543 3.83,1.619 3.756,1.641 3.627,1.674 3.501,1.623 3.381,1.484 L 1.443,-0.71 C 1.329,-0.835 1.291,-0.955 1.32,-1.057 1.355,-1.164 1.443,-1.277 1.585,-1.401 L 1.48,-1.518 -0.103,-0.12 0,0 z"
             style="fill:#173a79;fill-opacity:1;fill-rule:evenodd;stroke:none"
             id="path3103"
             inkscape:connector-curvature="0" /></g><g
           id="g3105"
           transform="translate(84.2603,714.1094)"><path
             d="m 0,0 c 0.096,-0.259 0.151,-0.403 0.17,-0.424 0.048,-0.061 0.111,-0.085 0.184,-0.083 0.077,0 0.144,0.021 0.202,0.049 l 0.106,-0.129 -1.093,-0.897 -0.092,0.114 c 0.137,0.308 0.23,0.58 0.269,0.807 0.071,0.429 -0.004,0.778 -0.233,1.055 C -0.744,0.805 -1.061,0.919 -1.44,0.823 -1.819,0.736 -2.235,0.504 -2.688,0.124 -3.026,-0.148 -3.266,-0.415 -3.415,-0.67 c -0.287,-0.479 -0.268,-0.913 0.054,-1.305 0.198,-0.236 0.451,-0.408 0.757,-0.504 0.17,-0.056 0.41,-0.095 0.716,-0.112 l 0,-0.235 c -0.357,0.016 -0.634,0.055 -0.839,0.115 -0.368,0.117 -0.673,0.322 -0.924,0.626 -0.377,0.457 -0.56,0.954 -0.545,1.492 0.02,0.596 0.287,1.102 0.8,1.527 0.504,0.416 1.055,0.592 1.637,0.518 0.55,-0.063 1.013,-0.324 1.385,-0.775 C -0.214,0.485 -0.089,0.258 0,0"
             style="fill:#173a79;fill-opacity:1;fill-rule:evenodd;stroke:none"
             id="path3107"
             inkscape:connector-curvature="0" /></g><g
           id="g3109"
           transform="translate(86.5918,709.0449)"><path
             d="m 0,0 c -0.183,-0.548 -0.564,-0.963 -1.135,-1.235 -0.578,-0.274 -1.136,-0.313 -1.678,-0.112 -0.53,0.201 -0.926,0.569 -1.189,1.122 C -4.281,0.356 -4.31,0.928 -4.101,1.479 -3.896,2 -3.536,2.377 -3.015,2.628 -2.445,2.9 -1.888,2.946 -1.348,2.761 -0.802,2.575 -0.392,2.195 -0.117,1.627 0.144,1.072 0.183,0.531 0,0 m -2.687,-0.635 c 0.303,0.043 0.664,0.165 1.087,0.368 0.579,0.281 0.977,0.577 1.191,0.89 0.213,0.311 0.248,0.616 0.107,0.915 C -0.5,1.951 -0.88,2.117 -1.445,2.033 -1.745,1.988 -2.102,1.869 -2.52,1.67 -2.948,1.467 -3.271,1.257 -3.493,1.054 -3.906,0.671 -4.017,0.272 -3.817,-0.137 c 0.196,-0.405 0.569,-0.575 1.13,-0.498"
             style="fill:#173a79;fill-opacity:1;fill-rule:evenodd;stroke:none"
             id="path3111"
             inkscape:connector-curvature="0" /></g><g
           id="g3113"
           transform="translate(73.1479,698.8359)"><path
             d="M 0,0 C -0.725,-0.545 -1.549,-2.481 -1.499,-2.882 -1.087,-2.718 0.092,-0.161 0,0"
             style="fill:#ffffff;fill-opacity:1;fill-rule:nonzero;stroke:none"
             id="path3115"
             inkscape:connector-curvature="0" /></g><g
           id="g3117"
           transform="translate(73.52,698.7041)"><path
             d="M 0,0 0.759,-0.416 0.62,-0.574 C 0.555,-0.944 0.402,-1.349 0.204,-1.804 L 2.003,-2.775 1.86,-3.035 0.073,-2.063 c 0,0 -0.479,-0.766 -0.733,-0.996 l -0.057,-0.306 -0.823,0.36 C -0.914,-2.397 -0.136,-0.898 0,0"
             style="fill:#ffffff;fill-opacity:1;fill-rule:evenodd;stroke:none"
             id="path3119"
             inkscape:connector-curvature="0" /></g><g
           id="g3121"
           transform="translate(73.9316,696.0137)"><path
             d="m 0,0 0.717,-1.607 c 0,0 0.43,0.699 0.517,0.913 L 0,0 z"
             style="fill:#ffffff;fill-opacity:1;fill-rule:evenodd;stroke:none"
             id="path3123"
             inkscape:connector-curvature="0" /></g><g
           id="g3125"
           transform="translate(74.2227,697.0664)"><path
             d="m 0,0 1.466,-0.792 c 0,0 0.712,1.472 0.81,1.759 L 0,0 z"
             style="fill:#ffffff;fill-opacity:1;fill-rule:evenodd;stroke:none"
             id="path3127"
             inkscape:connector-curvature="0" /></g><g
           id="g3129"
           transform="translate(72.7153,694.9775)"><path
             d="m 0,0 -0.817,-4.237 c 0,0 -0.848,-0.815 -1.352,-0.903 L 0,0 z"
             style="fill:#ffffff;fill-opacity:1;fill-rule:evenodd;stroke:none"
             id="path3131"
             inkscape:connector-curvature="0" /></g><g
           id="g3133"
           transform="translate(70.2139,693.1211)"><path
             d="M 0,0 1.853,2.111 1.918,2.082 0.428,-0.365 -0.036,-0.143 0,0 z"
             style="fill:#ffffff;fill-opacity:1;fill-rule:evenodd;stroke:none"
             id="path3135"
             inkscape:connector-curvature="0" /></g><g
           id="g3137"
           transform="translate(70.0884,692.5801)"><path
             d="M 0,0 0.35,-0.174 -0.296,-1.247 0,0 z"
             style="fill:#ffffff;fill-opacity:1;fill-rule:evenodd;stroke:none"
             id="path3139"
             inkscape:connector-curvature="0" /></g><g
           id="g3141"
           transform="translate(72.2251,688.376)"><path
             d="M 0,0 C 0.144,0.462 1.026,1.841 1.173,1.369 L 2.266,0.842 C 2.266,0.842 1.153,0.292 0,0"
             style="fill:#ffffff;fill-opacity:1;fill-rule:evenodd;stroke:none"
             id="path3143"
             inkscape:connector-curvature="0" /></g><g
           id="g3145"
           transform="translate(74.6401,691.2061)"><path
             d="m 0,0 1.688,-0.831 c 0.091,0.864 0.874,2.198 1.476,2.42 L 1.53,2.479 C 1.135,2.422 0.144,1.06 0,0"
             style="fill:#ffffff;fill-opacity:1;fill-rule:evenodd;stroke:none"
             id="path3147"
             inkscape:connector-curvature="0" /></g><g
           id="g3149"
           transform="translate(78.8394,694.6572)"><path
             d="m 0,0 c -0.098,1.024 0.726,2.177 1.266,2.596 l -1.64,0.961 c 0,0 -1.332,-1.162 -1.283,-2.661 L 0,0 z"
             style="fill:#ffffff;fill-opacity:1;fill-rule:evenodd;stroke:none"
             id="path3151"
             inkscape:connector-curvature="0" /></g><g
           id="g3153"
           transform="translate(81.2944,701.2607)"><path
             d="m 0,0 -1.521,0.984 c 0,0 -1.078,-1.433 -0.743,-2.108 l 1.426,-0.864 C -0.884,-1.497 -0.588,-0.798 0,0"
             style="fill:#ffffff;fill-opacity:1;fill-rule:evenodd;stroke:none"
             id="path3155"
             inkscape:connector-curvature="0" /></g><g
           id="g3157"
           transform="translate(81.3921,704.0264)"><path
             d="M 0,0 -1.383,0.941 C -1.628,0.563 -2.192,-0.791 -1.466,-0.217 l 1.061,-0.708 c 0,0 0.064,0.314 0.405,0.925"
             style="fill:#ffffff;fill-opacity:1;fill-rule:evenodd;stroke:none"
             id="path3159"
             inkscape:connector-curvature="0" /></g><g
           id="g3161"
           transform="translate(79.3931,706.3115)"><path
             d="m 0,0 c 0,0 -0.326,-0.771 -0.23,-0.819 0.111,-0.055 0.665,0.523 0.665,0.523 L 0,0 z"
             style="fill:#ffffff;fill-opacity:1;fill-rule:evenodd;stroke:none"
             id="path3163"
             inkscape:connector-curvature="0" /></g><g
           id="g3165"
           transform="translate(74.6768,698.7383)"><path
             d="M 0,0 2.799,4.641 C 2.981,4.372 3.04,3.964 3.014,3.432 L 0,0 z"
             style="fill:#ffffff;fill-opacity:1;fill-rule:evenodd;stroke:none"
             id="path3167"
             inkscape:connector-curvature="0" /></g><g
           id="g3169"
           transform="translate(74.4858,701.5479)"><path
             d="M 0,0 C 0,0 0.868,1.021 1.151,1.207 L 0.514,-0.301 0,0 z"
             style="fill:#ffffff;fill-opacity:1;fill-rule:evenodd;stroke:none"
             id="path3171"
             inkscape:connector-curvature="0" /></g><g
           id="g3173"
           transform="translate(74.3467,701.2363)"><path
             d="M 0,0 0.527,-0.305 -0.337,-2.339 -0.455,-2.277 0,0 z"
             style="fill:#ffffff;fill-opacity:1;fill-rule:evenodd;stroke:none"
             id="path3175"
             inkscape:connector-curvature="0" /></g><g
           id="g3177"
           transform="translate(70.3696,695.96)"><path
             d="M 0,0 C 0.279,0.218 0.904,1.388 0.861,1.768 L 1.323,2.614 C 1.74,2.863 2.208,3.863 2.317,4.304 L 2.816,5.095 C 3.071,5.088 3.706,5.992 3.878,6.609 L 4.436,7.318 C 4.69,7.049 5.43,8.282 5.528,8.593 L 6.079,9.111 C 6.216,8.432 7.082,9.823 7.105,9.975 l 0.521,0.276 C 7.405,9.51 7.676,9.428 8.518,10.514 L 8.75,10.454 C 8.001,8.695 9.152,9.239 9.539,9.728 L 10.948,8.758 11.036,8.45 9.527,9.471 C 8.236,7.396 9.075,7.165 9.542,7.41 L 11.164,6.339 11.082,5.668 9.306,6.81 C 8.797,6.244 7.725,4.256 8.387,3.863 L 10.332,2.688 9.951,1.645 8.053,2.75 C 7.1,2.044 6.109,0.325 6.48,-0.679 L 8.422,-1.736 7.796,-2.898 5.869,-1.854 C 4.778,-2.099 3.934,-3.886 3.835,-4.984 L 5.68,-5.885 C 5.306,-6.142 4.593,-6.516 4.593,-6.516 L 3.318,-5.918 C 2.651,-5.175 1.719,-6.762 1.375,-7.707 0.306,-7.986 -1.379,-8.083 -1.379,-8.083 l 0.589,2.53 2.594,4.289 -2.243,-5.331 c 0,0 1.129,-0.095 2.317,1.161 l 0.98,4.94 c 0,0 0.185,0.208 0.331,0.416 l 1.055,-2.293 c 1.177,1.849 2.227,4.139 2.652,5.205 L 4.038,1.609 c 0,0 0.046,0.21 0.074,0.354 L 7.71,6.046 C 7.752,6.803 7.728,7.519 7.03,8.057 L 4.01,3.049 5.968,7.694 C 5.481,7.516 4.319,6.314 3.735,5.597 L 3.241,3.143 2.947,3.303 C 2.276,3.575 0.335,-0.006 1.051,-0.417 l 0.38,-0.186 -1.458,-1.648 c 0.188,0.786 0.43,1.319 -0.081,2.002 L 0,0 z"
             style="fill:#ffffff;fill-opacity:1;fill-rule:evenodd;stroke:none"
             id="path3179"
             inkscape:connector-curvature="0" /></g><g
           id="g3181"
           transform="translate(67.9751,694.0977)"><path
             d="M 0,0 0.532,1.201 C 0.649,1.072 0.712,0.929 0.712,0.784 0.712,0.489 0.448,0.222 0,0"
             style="fill:#ffffff;fill-opacity:1;fill-rule:evenodd;stroke:none"
             id="path3183"
             inkscape:connector-curvature="0" /></g><g
           id="g3185"
           transform="translate(67.5439,693.915)"><path
             d="m 0,0 c -0.152,-0.054 -0.309,-0.099 -0.482,-0.142 l 1.389,5.186 -0.571,-0.182 2.253,8.209 -0.944,-0.3 2.545,9.254 c 0.167,-0.046 1.186,-0.263 2.484,-0.84 L 3.835,14.653 5.615,15.218 1.693,6.185 2.877,6.562 0,0 z"
             style="fill:#ffffff;fill-opacity:1;fill-rule:evenodd;stroke:none"
             id="path3187"
             inkscape:connector-curvature="0" /></g><g
           id="g3189"
           transform="translate(66.7026,693.6973)"><path
             d="M 0,0 C -0.074,-0.013 -0.149,-0.024 -0.227,-0.036 L 0.074,3.175 C 0.281,3.137 0.625,3.092 0.809,3.036 L 0,0 z"
             style="fill:#ffffff;fill-opacity:1;fill-rule:evenodd;stroke:none"
             id="path3191"
             inkscape:connector-curvature="0" /></g><g
           id="g3193"
           transform="translate(60.6484,690.1885)"><path
             d="M 0,0 -1.161,4.463 C -1.366,6.192 1.768,7.192 4.097,7.18 l -1.299,3.143 0,5.03 c 0,0 0.123,0.187 0.135,0.312 0.039,0.433 -0.838,0.665 -1.555,0.661 -0.462,-0.01 -1.484,-0.099 -1.248,-0.558 0.132,-0.261 0.878,-0.372 1.387,-0.346 0.527,0.025 0.99,0.275 0.99,0.275 0,0 0.129,0.038 0.18,-0.093 0.056,-0.138 -0.096,-0.208 -0.096,-0.208 0,0 -0.497,-0.26 -1.269,-0.277 -0.595,-0.013 -1.263,0.13 -1.486,0.556 -0.028,0.051 -0.031,0.15 -0.031,0.15 -0.149,-0.068 -0.18,-0.3 -0.055,-0.419 0.121,-0.118 0.091,-0.25 0.091,-0.25 l 0,-4.824 L -3.08,2.745 C -2.249,1.733 -1.005,0.597 0,0"
             style="fill:#ffffff;fill-opacity:1;fill-rule:evenodd;stroke:none"
             id="path3195"
             inkscape:connector-curvature="0" /></g><g
           id="g3197"
           transform="translate(63.8955,696.1426)"><path
             d="M 0,0 C 0.104,0.013 0.178,0.082 0.178,0.186 0.178,0.29 0.104,0.374 0,0.374 -1.665,0.161 -2.904,-0.497 -2.904,-1.273 c 0,-0.941 1.814,-1.706 4.05,-1.706 2.239,0 4.055,0.765 4.055,1.706 0,0.287 -0.16,0.547 -0.437,0.779 l 0.255,0.607 c 0.868,-0.406 1.243,-0.874 1.243,-1.415 0,-1.108 -1.997,-2.02 -4.583,-2.134 -0.101,0 -0.185,-0.085 -0.185,-0.183 0,-0.099 0.088,-0.184 0.185,-0.184 1.918,0.097 3.605,0.654 4.321,1.285 L 4.652,-8.277 c -2.351,-0.026 -5.133,0.582 -7.445,2.05 l -0.912,3.701 c 0.949,-0.695 2.226,-1.043 3.417,-1.203 0.108,-0.004 0.181,0.083 0.181,0.185 0,0.102 -0.067,0.176 -0.174,0.186 -2.159,0.256 -3.735,1.077 -3.735,2.066 0,1.184 2.291,2.189 5.5,2.142 l 0.033,-3.433 c -0.123,0 -0.255,-0.006 -0.38,-0.006 -2.011,0 -3.649,0.596 -3.649,1.328 0,0.589 1.046,1.087 2.512,1.261"
             style="fill:#ffffff;fill-opacity:1;fill-rule:evenodd;stroke:none"
             id="path3199"
             inkscape:connector-curvature="0" /></g><g
           id="g3201"
           transform="translate(65.7363,693.5801)"><path
             d="m 0,0 -0.147,11.565 -0.58,-0.186 -0.052,5.536 -0.711,-0.226 -0.064,5.406 c 0,0 0.671,0.231 1.955,0.46 l -0.413,-4.056 0.81,0.268 -0.6,-6.058 1.495,0.496 L 0.386,0.036 C 0.259,0.021 0.129,0.009 0,0"
             style="fill:#ffffff;fill-opacity:1;fill-rule:evenodd;stroke:none"
             id="path3203"
             inkscape:connector-curvature="0" /></g><g
           id="g3205"
           transform="translate(56.5181,703.0527)"><path
             d="M 0,0 0,1.052 C 0.326,0.767 0.736,0.74 0.736,0.74 0.817,0.73 0.939,0.826 0.942,0.951 0.944,1.066 0.854,1.153 0.743,1.159 0.743,1.159 0.326,1.182 0,1.47 L 0,2.514 C 0.326,2.232 0.736,2.203 0.736,2.203 0.817,2.2 0.939,2.292 0.942,2.413 0.944,2.529 0.854,2.613 0.743,2.622 0.743,2.622 0.326,2.649 0,2.934 L 0,3.98 C 0.326,3.693 0.736,3.666 0.736,3.666 0.817,3.663 0.939,3.753 0.942,3.874 0.944,3.993 0.854,4.077 0.743,4.087 c 0,0 -0.417,0.026 -0.743,0.31 l 0,1.201 c 0,0 0.023,0.098 0.099,0.033 C 0.176,5.567 0.195,5.532 0.334,5.473 0.564,5.372 0.854,5.316 1.196,5.305 1.652,5.293 1.984,5.357 2.346,5.516 2.405,5.543 2.451,5.627 2.431,5.684 2.415,5.741 2.379,5.779 2.331,5.801 2.244,5.83 2.161,5.768 2.017,5.715 1.76,5.627 1.499,5.571 1.161,5.602 0.814,5.631 0.32,5.7 0.313,5.876 0.31,5.992 0.572,6.098 0.811,6.177 1.122,6.277 1.585,6.302 1.906,6.302 2.451,6.298 2.9,6.263 2.906,5.996 2.909,5.846 2.756,5.825 2.711,5.696 2.696,5.647 2.681,5.571 2.681,5.571 L 2.678,-4.678 0.743,-9.719 c 0,0 -0.493,0.615 -0.743,1.01 l 0,0.976 c 0.326,-0.279 0.736,-0.307 0.736,-0.307 0.081,-0.008 0.203,0.086 0.206,0.208 0.002,0.118 -0.088,0.2 -0.199,0.21 0,0 -0.417,0.031 -0.743,0.308 l 0,1.046 c 0.326,-0.283 0.736,-0.308 0.736,-0.308 0.081,-0.008 0.203,0.081 0.206,0.208 0.002,0.118 -0.088,0.201 -0.199,0.211 0,0 -0.417,0.027 -0.743,0.314 l 0,1.04 c 0.326,-0.282 0.736,-0.309 0.736,-0.309 0.081,-0.008 0.203,0.084 0.206,0.207 0.002,0.117 -0.088,0.2 -0.199,0.21 0,0 -0.417,0.022 -0.743,0.306 l 0,1.048 c 0.326,-0.283 0.736,-0.307 0.736,-0.307 0.081,-0.008 0.203,0.084 0.206,0.206 0.002,0.117 -0.088,0.2 -0.199,0.213 0,0 -0.417,0.021 -0.743,0.306 l 0,1.047 c 0.326,-0.281 0.736,-0.314 0.736,-0.314 0.081,-0.003 0.203,0.088 0.206,0.212 0.002,0.117 -0.088,0.201 -0.199,0.209 0,0 -0.417,0.026 -0.743,0.312 l 0,1.046 c 0.326,-0.286 0.736,-0.31 0.736,-0.31 0.081,-0.008 0.203,0.083 0.206,0.207 0.002,0.114 -0.088,0.198 -0.199,0.212 0,0 -0.417,0.016 -0.743,0.302"
             style="fill:#ffffff;fill-opacity:1;fill-rule:evenodd;stroke:none"
             id="path3207"
             inkscape:connector-curvature="0" /></g><g
           id="g3209"
           transform="translate(50.4976,742.7876)"><path
             d="M 0,0 C -0.616,1.124 -1.279,2.104 -0.966,3.999 -0.682,5.719 0.518,6.308 1.091,9.433 1.498,9.379 2.05,7.507 2.05,7.507 c 0,0 0.077,2.654 -1.278,3.385 0,0 0.175,-1.388 -0.37,-2.752 C -0.176,6.693 -1.457,5.414 -1.759,4.075 -1.759,4.075 -2.114,1.036 0,0"
             style="fill:#173a79;fill-opacity:1;fill-rule:evenodd;stroke:none"
             id="path3211"
             inkscape:connector-curvature="0" /></g><g
           id="g3213"
           transform="translate(50.7329,746.0342)"><path
             d="m 0,0 c 0,0 -0.37,1.82 1.48,2.653 1.216,0.548 1.685,0.962 2.424,1.995 0,0 -0.167,-1.565 0.166,-2.596 0.332,-1.039 0.871,-2.281 0.018,-3.617 0,0 0.262,1.519 -0.166,2.25 -0.424,0.733 -0.629,0.886 -0.72,1.974 0,0 -0.531,-0.446 -1.387,-0.656 C 0.202,1.593 0,0 0,0"
             style="fill:#173a79;fill-opacity:1;fill-rule:evenodd;stroke:none"
             id="path3215"
             inkscape:connector-curvature="0" /></g><g
           id="g3217"
           transform="translate(53.4014,752.1665)"><path
             d="M 0,0 C 0.476,0.673 1.876,2.248 1.494,5.634 2.1,3.992 3.959,1.86 3.164,-1.139 c 0,0 0.716,-0.072 1.503,0.987 0,0 -0.249,-0.772 -0.278,-2.509 -0.021,-1.091 -0.24,-3.693 -1.767,-4.961 0,0 1.527,2.786 1.305,5.93 0,0 -0.874,-0.8 -1.637,-0.532 0,0 1.304,2.488 -0.353,5.467 C 1.937,3.243 1.889,1.159 0,0"
             style="fill:#173a79;fill-opacity:1;fill-rule:evenodd;stroke:none"
             id="path3219"
             inkscape:connector-curvature="0" /></g><g
           id="g3221"
           transform="translate(76.8643,723.4092)"><path
             d="M 0,0 C -0.26,0.488 -0.574,0.902 -0.935,1.138 -1.166,0.976 -1.374,0.773 -1.554,0.554 -1.027,0.39 -0.509,0.201 0,0"
             style="fill:#ffffff;fill-opacity:1;fill-rule:evenodd;stroke:none"
             id="path3223"
             inkscape:connector-curvature="0" /></g><g
           id="g3225"
           transform="translate(56.939,736.4907)"><path
             d="M 0,0 C -0.541,0.22 -1.075,0.392 -1.407,0.366 -1.741,0.343 -2.739,-0.31 -3.255,-0.617 -3.483,-0.751 -3.837,-0.83 -4.181,-0.964 -4.445,-1.093 -4.875,-1.32 -5.064,-1.931 c -0.155,-0.802 0.299,-0.629 0.033,-1.588 -0.231,-0.613 0.01,-0.987 0.568,-1.464 0.297,-0.31 -0.229,-0.819 0.172,-1.327 0.233,-0.315 0.737,-0.405 0.768,-0.774 0.034,-0.616 -0.144,-0.937 0.418,-1.273 0.717,-0.548 1.094,-0.645 2.297,-0.792 0.018,-0.005 -0.218,0.186 -0.365,0.365 -0.089,0.165 -0.316,0.511 0.132,0.725 0.403,0.199 0.897,0.423 1.536,0.956 0.822,0.286 1.309,0.464 1.43,0.871 0.059,0.177 0.012,0.497 -0.287,0.641 -0.453,0.085 -1.359,-0.164 -1.661,-0.252 -0.256,-0.072 -1.183,-0.585 -1.646,-0.872 -0.611,-0.374 -0.977,0.495 -0.435,0.516 0.491,0.199 1.185,0.574 2.003,1.027 0.236,0.115 0.671,0.11 0.952,0.133 0.458,0.042 0.794,0.028 0.921,0.169 0.155,0.148 0.143,0.645 -0.05,0.822 -0.454,0.258 -1.143,0.18 -1.962,0.27 -0.639,-0.058 -1.226,-0.539 -2.382,-1.022 -0.335,-0.058 -0.726,0.575 -0.129,0.673 0.426,0.071 0.988,0.479 2.271,1.003 0.334,0.135 0.953,-0.12 1.531,-0.189 0.185,-0.028 0.4,-0.079 0.545,-0.032 0.338,0.235 0.203,0.781 0.107,0.899 -0.341,0.465 -1.87,0.622 -2.294,0.714 -0.439,0.093 -1.734,-0.717 -2.05,-0.844 -0.138,-0.055 -0.217,-0.113 -0.445,-0.15 -0.164,0.03 -0.429,0.435 0.178,0.634 0.897,0.327 1.599,0.925 2.029,1.017 0.074,0.014 0.163,0.014 0.316,-0.023 C -0.49,-0.659 0,0 0,0"
             style="fill:#ffffff;fill-opacity:1;fill-rule:nonzero;stroke:none"
             id="path3227"
             inkscape:connector-curvature="0" /></g><g
           id="g3229"
           transform="translate(58.0347,721.4492)"><path
             d="m 0,0 c -0.045,0.144 -0.111,0.334 -0.185,0.563 -1.623,-0.856 -3.11,-1.893 -4.469,-3.11 -0.201,-0.451 -0.396,-0.734 -0.534,-0.901 -0.235,-0.291 -0.559,-0.273 -0.559,-0.273 0,0 1.163,1.844 1.339,4.187 0.163,2.161 -0.353,3.529 -0.353,3.529 0,0 -1.282,-1.17 -1.875,-3.537 -0.458,-1.841 -0.093,-3.589 0.039,-4.024 C -6.282,-3.992 -6,-4.349 -5.847,-4.547 -4.181,-2.722 -2.196,-1.177 0,0"
             style="fill:#ffffff;fill-opacity:1;fill-rule:evenodd;stroke:none"
             id="path3231"
             inkscape:connector-curvature="0" /></g><g
           id="g3233"
           transform="translate(60.3428,722.5166)"><path
             d="M 0,0 C -0.198,0.863 -1.53,6.993 -1.53,6.993 -1.775,6.767 -2.556,6.438 -2.774,6.364 -3.337,5.938 -3.32,5.964 -3.962,5.62 c 0,0 1.66,-5.22 2.058,-6.476 C -1.284,-0.541 -0.65,-0.254 0,0"
             style="fill:#ffffff;fill-opacity:1;fill-rule:evenodd;stroke:none"
             id="path3235"
             inkscape:connector-curvature="0" /></g><g
           id="g3237"
           transform="translate(85.3643,723.0947)"><path
             d="M 0,0 C 0.183,0.735 0.375,1.27 0.491,1.542 -2.313,1.425 -4.256,2.239 -5.28,2.262 -6.839,2.299 -8.048,2.009 -8.75,1.633 c 0.39,-0.457 0.726,-0.83 1.044,-1.656 0.033,-0.013 0.063,-0.028 0.095,-0.039 C -4.962,0.949 -2.885,0.039 0,0"
             style="fill:#ffffff;fill-opacity:1;fill-rule:evenodd;stroke:none"
             id="path3239"
             inkscape:connector-curvature="0" /></g><g
           id="g3241"
           transform="translate(85.9863,723.1069)"><path
             d="m 0,0 c -0.19,-0.542 -0.497,-1.622 -0.511,-3.097 -0.033,-2.349 0.967,-4.288 0.967,-4.288 0,0 -0.323,0.01 -0.535,0.324 -0.072,0.105 -0.168,0.261 -0.264,0.468 -2.095,2.518 -4.721,4.56 -7.716,5.966 -0.186,-0.062 -0.388,-0.136 -0.583,-0.218 -0.065,0.193 -0.132,0.384 -0.207,0.573 -0.678,0.286 -1.393,0.547 -2.105,0.769 -0.129,-0.195 -0.241,-0.37 -0.317,-0.513 4.747,-1.433 8.814,-4.443 11.595,-8.409 0.144,0.164 0.562,0.643 0.991,1.119 C 1.482,-6.884 2,-5.177 1.705,-3.301 1.44,-1.637 0.797,-0.511 0.429,0.024 0.258,0.271 0.145,0.39 0.145,0.39 0.145,0.39 0.085,0.257 0,0"
             style="fill:#ffffff;fill-opacity:1;fill-rule:evenodd;stroke:none"
             id="path3243"
             inkscape:connector-curvature="0" /></g><g
           id="g3245"
           transform="translate(61.3984,731.0132)"><path
             d="m 0,0 c -0.111,-0.181 -0.213,-0.313 -0.259,-0.364 -0.316,-0.311 -0.722,-0.196 -0.417,0.17 0.38,0.452 0.8,1.253 0.685,2.039 C -0.2,3.224 -0.269,4.384 -0.722,4.923 -1.077,5.337 -1.609,6.003 -2.028,6.544 -2.244,6.813 -3.1,6.942 -3.382,6.373 -3.571,5.991 -3.762,5.517 -4.398,4.692 c -0.306,-0.4 0.049,-0.539 0.37,-0.655 0.947,-0.351 1.47,0.222 1.62,0.419 C -2.262,4.653 -2.054,4.225 -2.35,3.838 -2.367,3.81 -2.549,3.668 -2.549,3.668 -2.923,3.414 -2.974,3.708 -2.622,3.515 -2.457,3.414 -2.2,3.063 -2.213,2.58 -2.226,2.377 -2.236,2.067 -2.51,1.822 -2.319,1.665 -2.11,1.355 -2.146,0.999 -2.161,0.643 -2.213,0.365 -2.486,0.226 -2.153,0.013 -1.989,-0.629 -2.179,-1.036 L -1.9,-2.299 c 0.052,0.058 0.105,0.12 0.147,0.185 0.311,0.439 0.383,0.666 0.559,0.587 0.114,-0.332 -0.106,-0.915 -0.595,-1.345 0,0 0.88,-4.082 1.187,-5.45 1.548,0.571 3.166,0.961 4.852,1.172 -0.458,0.605 -0.861,1.1 -1.17,1.586 -0.722,1.12 -1.323,2.229 -1.545,2.897 C 1.313,-1.998 1.15,-1.416 0.069,-0.098 0.042,-0.061 0.018,-0.03 0,0"
             style="fill:#ffffff;fill-opacity:1;fill-rule:nonzero;stroke:none"
             id="path3247"
             inkscape:connector-curvature="0" /></g><g
           id="g3249"
           transform="translate(62.9058,729.7847)"><path
             d="m 0,0 c -0.18,1.815 -0.693,6.879 -1.202,10.531 0,0 -0.38,-0.352 -0.729,-0.585 -0.455,-0.305 -0.907,-0.505 -0.907,-0.505 0,0 0.193,-1.16 0.436,-2.291 C -2.113,6.797 -1.877,6.519 -1.877,6.519 -1.332,5.923 -1.244,4.963 -1.096,3.578 -1.04,3.083 -0.999,2.537 -1.12,2.091 -1.147,1.984 -1.186,1.871 -1.231,1.769 -0.902,1.149 -0.408,0.729 0,0"
             style="fill:#ffffff;fill-opacity:1;fill-rule:nonzero;stroke:none"
             id="path3251"
             inkscape:connector-curvature="0" /></g><g
           id="g3253"
           transform="translate(65.6582,724.6997)"><path
             d="m 0,0 c 0.186,-0.25 0.383,-0.504 0.59,-0.774 0.694,0.069 1.404,0.103 2.118,0.103 2.013,0 3.946,-0.27 5.795,-0.775 0.214,0.368 0.447,0.942 1.111,1.457 C 9.616,0.005 8.401,0.574 6.848,0.542 4.954,0.505 2.844,0.011 1.366,0.011 0.439,0.011 0.222,-0.013 0,0"
             style="fill:#ffffff;fill-opacity:1;fill-rule:nonzero;stroke:none"
             id="path3255"
             inkscape:connector-curvature="0" /></g><g
           id="g3257"
           transform="translate(88.6938,725.2505)"><path
             d="m 0,0 c -0.013,0.766 0.05,1.461 0.139,2.081 -0.362,1.197 -0.782,2.676 -1.211,4.38 -1.009,3.484 -1.712,7.605 -1.712,7.605 0,0 -0.661,0.007 -1.013,0.301 0.001,-0.002 1.68,-7.742 3.511,-14.062 C -0.282,0.289 -0.157,0.167 0,0"
             style="fill:#ffffff;fill-opacity:1;fill-rule:evenodd;stroke:none"
             id="path3259"
             inkscape:connector-curvature="0" /></g><g
           id="g3261"
           transform="translate(63.2295,739.0327)"><path
             d="m 0,0 c 0,0 0.833,-0.202 2.3,-0.208 0.892,-0.002 1.608,0.06 1.608,0.06 l 0.833,-4.685 c 0,0 -0.736,-0.328 -1.865,-0.278 -1.133,0.051 -2.202,0.354 -2.202,0.354 L 0,0 z m 0.448,-0.479 0.547,-3.832 c 0,0 0.869,-0.268 1.789,-0.314 0.921,-0.042 1.498,0.227 1.498,0.227 L 3.621,-0.59 c 0,0 -0.585,-0.072 -1.303,-0.046 -1.194,0.039 -1.87,0.157 -1.87,0.157"
             style="fill:#173a79;fill-opacity:1;fill-rule:evenodd;stroke:none"
             id="path3263"
             inkscape:connector-curvature="0" /></g><g
           id="g3265"
           transform="translate(66.8525,727.1484)"><path
             d="M 0,0 C 1.104,-0.004 3.136,0.588 4.563,0.664 6.151,0.748 7,0.353 7.252,0.274 7.57,0.172 7.531,-0.225 7.259,-0.123 7.01,-0.022 6.113,0.331 4.576,0.248 3.039,0.16 1.323,-0.387 0.306,-0.39 -0.617,-0.397 -1.759,-0.275 -2.12,-0.21 -2.522,-0.132 -2.416,0.196 -2.106,0.16 -1.814,0.122 -0.811,0.008 0,0"
             style="fill:#173a79;fill-opacity:1;fill-rule:evenodd;stroke:none"
             id="path3267"
             inkscape:connector-curvature="0" /></g><g
           id="g3269"
           transform="translate(64.0186,738.0801)"><path
             d="m 0,0 c 0,0 0.798,-0.13 1.397,-0.116 0.509,0.012 1.166,0.005 1.166,0.005 L 2.69,-0.759 2.555,-0.726 c 0,0 0.027,0.148 -0.167,0.19 -0.198,0.045 -0.608,0.013 -0.608,0.013 0,0 0.258,-1.937 0.27,-2.063 0.014,-0.069 0.014,-0.21 0.066,-0.277 0.069,-0.088 0.402,-0.338 0.402,-0.338 0,0 -0.32,-0.083 -0.634,-0.065 -0.377,0.024 -0.666,0.019 -0.666,0.019 0,0 0.229,0.305 0.278,0.384 0.051,0.086 0.025,0.222 0.015,0.305 -0.042,0.259 -0.274,1.848 -0.274,1.848 0,0 0.011,0.259 -0.264,0.224 0,0 -0.392,0.051 -0.542,0.051 -0.152,0 -0.228,-0.354 -0.228,-0.354 l -0.104,0 L 0,0 z"
             style="fill:#173a79;fill-opacity:1;fill-rule:evenodd;stroke:none"
             id="path3271"
             inkscape:connector-curvature="0" /></g><g
           id="g3273"
           transform="translate(66.7002,729.1079)"><path
             d="M 0,0 C 1.074,-0.024 3.129,0.522 4.519,0.596 6.07,0.679 6.838,0.337 7.088,0.275 7.339,0.221 7.329,-0.185 7.075,-0.121 6.821,-0.061 6.042,0.252 4.543,0.171 3.05,0.083 1.383,-0.412 0.298,-0.394 -0.859,-0.375 -1.91,-0.197 -2.204,-0.112 -2.587,0.006 -2.481,0.352 -2.195,0.258 -1.883,0.157 -0.982,0.016 0,0"
             style="fill:#173a79;fill-opacity:1;fill-rule:evenodd;stroke:none"
             id="path3275"
             inkscape:connector-curvature="0" /></g><g
           id="g3277"
           transform="translate(66.3008,732.8999)"><path
             d="M 0,0 C 1.036,-0.042 3.029,0.472 4.375,0.522 5.873,0.583 6.678,0.204 6.919,0.144 7.161,0.081 7.143,-0.324 6.9,-0.254 6.655,-0.19 5.836,0.157 4.389,0.094 2.943,0.032 1.325,-0.432 0.281,-0.398 -0.837,-0.356 -1.878,-0.134 -2.161,-0.042 -2.531,0.081 -2.42,0.425 -2.143,0.324 -1.848,0.22 -0.948,0.035 0,0"
             style="fill:#173a79;fill-opacity:1;fill-rule:evenodd;stroke:none"
             id="path3279"
             inkscape:connector-curvature="0" /></g><g
           id="g3281"
           transform="translate(68.127,737.0093)"><path
             d="M 0,0 C 0.814,0.076 1.411,0.157 2.095,0.141 3.593,0.092 4.301,-0.317 4.538,-0.396 4.775,-0.479 4.732,-0.879 4.491,-0.793 4.255,-0.71 3.529,-0.331 2.081,-0.29 1.342,-0.271 0.81,-0.354 0.074,-0.428 c 0,0 -0.244,-0.034 -0.274,0.184 C -0.229,-0.021 0,0 0,0"
             style="fill:#173a79;fill-opacity:1;fill-rule:evenodd;stroke:none"
             id="path3283"
             inkscape:connector-curvature="0" /></g><g
           id="g3285"
           transform="translate(67.7852,738.9194)"><path
             d="M 0,0 C 0.805,0.071 1.383,0.15 2.09,0.12 3.527,0.058 4.195,-0.365 4.421,-0.451 4.643,-0.533 4.597,-0.933 4.366,-0.839 4.144,-0.756 3.455,-0.373 2.067,-0.308 1.294,-0.272 0.795,-0.359 0.073,-0.417 c 0,0 -0.221,-0.018 -0.246,0.16 C -0.208,-0.012 0,0 0,0"
             style="fill:#173a79;fill-opacity:1;fill-rule:evenodd;stroke:none"
             id="path3287"
             inkscape:connector-curvature="0" /></g><g
           id="g3289"
           transform="translate(84.7813,727.1743)"><path
             d="M 0,0 C -2.262,0.167 -3.586,0.68 -5.116,0.747 -6.654,0.81 -7.666,0.386 -7.917,0.3 c -0.32,-0.094 -0.186,-0.489 0.086,-0.387 0.255,0.091 1.28,0.468 2.679,0.432 C -3.597,0.3 -2.61,-0.2 -0.269,-0.352 0.509,-0.403 1.216,-0.333 1.58,-0.263 1.989,-0.189 1.88,0.141 1.568,0.102 1.275,0.065 0.696,-0.048 0,0"
             style="fill:#173a79;fill-opacity:1;fill-rule:evenodd;stroke:none"
             id="path3291"
             inkscape:connector-curvature="0" /></g><g
           id="g3293"
           transform="translate(84.3467,728.9756)"><path
             d="m 0,0 c -2.244,0.164 -3.552,0.682 -5.064,0.745 -1.522,0.064 -2.52,-0.363 -2.775,-0.442 -0.314,-0.101 -0.18,-0.495 0.088,-0.394 0.251,0.098 1.262,0.468 2.649,0.431 1.539,-0.037 2.516,-0.541 4.839,-0.691 0.763,-0.054 1.467,0.02 1.826,0.085 0.403,0.078 0.291,0.409 -0.012,0.37 C 1.257,0.062 0.689,-0.049 0,0"
             style="fill:#173a79;fill-opacity:1;fill-rule:evenodd;stroke:none"
             id="path3295"
             inkscape:connector-curvature="0" /></g><g
           id="g3297"
           transform="translate(83.4727,732.583)"><path
             d="m 0,0 c -2.193,0.204 -3.468,0.747 -4.948,0.83 -1.49,0.088 -2.479,-0.319 -2.729,-0.393 -0.308,-0.094 -0.185,-0.49 0.084,-0.394 0.245,0.089 1.243,0.445 2.603,0.387 1.503,-0.071 2.455,-0.587 4.727,-0.779 0.746,-0.065 1.438,-0.003 1.791,0.057 0.397,0.07 0.294,0.398 -0.007,0.364 C 1.234,0.04 0.671,-0.06 0,0"
             style="fill:#173a79;fill-opacity:1;fill-rule:evenodd;stroke:none"
             id="path3299"
             inkscape:connector-curvature="0" /></g><g
           id="g3301"
           transform="translate(82.5605,736.3823)"><path
             d="m 0,0 c -2.135,0.199 -3.377,0.74 -4.822,0.833 -1.452,0.083 -2.419,-0.322 -2.66,-0.398 -0.301,-0.098 -0.18,-0.49 0.079,-0.395 0.24,0.092 1.214,0.448 2.538,0.388 1.471,-0.072 2.396,-0.585 4.611,-0.775 0.732,-0.065 1.402,-0.007 1.744,0.051 0.388,0.074 0.291,0.404 -0.005,0.37 C 1.208,0.04 0.658,-0.06 0,0"
             style="fill:#173a79;fill-opacity:1;fill-rule:evenodd;stroke:none"
             id="path3303"
             inkscape:connector-curvature="0" /></g><g
           id="g3305"
           transform="translate(82.126,738.2808)"><path
             d="m 0,0 c -2.104,0.202 -3.327,0.738 -4.749,0.826 -1.434,0.09 -2.382,-0.32 -2.617,-0.394 -0.301,-0.097 -0.182,-0.49 0.075,-0.397 0.239,0.095 1.197,0.448 2.503,0.388 1.443,-0.069 2.354,-0.582 4.538,-0.774 0.718,-0.063 1.379,-0.003 1.717,0.057 0.383,0.07 0.287,0.4 -0.006,0.365 C 1.189,0.037 0.649,-0.065 0,0"
             style="fill:#173a79;fill-opacity:1;fill-rule:evenodd;stroke:none"
             id="path3307"
             inkscape:connector-curvature="0" /></g><g
           id="g3309"
           transform="translate(66.4043,731.0313)"><path
             d="M 0,0 C 1.07,-0.042 3.122,0.47 4.507,0.528 6.052,0.583 6.806,0.222 7.056,0.162 7.3,0.102 7.289,-0.306 7.036,-0.238 6.782,-0.173 6.016,0.153 4.523,0.092 3.032,0.035 1.367,-0.435 0.29,-0.398 c -1.147,0.04 -2.072,0.262 -2.364,0.354 -0.379,0.125 -0.268,0.47 0.018,0.368 C -1.75,0.215 -0.978,0.037 0,0"
             style="fill:#173a79;fill-opacity:1;fill-rule:evenodd;stroke:none"
             id="path3311"
             inkscape:connector-curvature="0" /></g><g
           id="g3313"
           transform="translate(68.4634,735.106)"><path
             d="M 0,0 C 0.778,0.099 1.217,0.203 1.937,0.18 3.51,0.134 4.252,-0.273 4.502,-0.356 4.751,-0.435 4.703,-0.831 4.453,-0.75 c -0.252,0.084 -1.012,0.463 -2.53,0.5 -0.784,0.023 -1.154,-0.081 -1.849,-0.175 0,0 -0.257,-0.051 -0.287,0.171 C -0.246,-0.028 0,0 0,0"
             style="fill:#173a79;fill-opacity:1;fill-rule:evenodd;stroke:none"
             id="path3315"
             inkscape:connector-curvature="0" /></g><g
           id="g3317"
           transform="translate(83.0381,734.4819)"><path
             d="M 0,0 C -2.172,0.201 -3.432,0.74 -4.898,0.832 -6.375,0.92 -7.352,0.513 -7.596,0.437 c -0.308,-0.1 -0.186,-0.491 0.078,-0.396 0.247,0.092 1.232,0.448 2.578,0.389 1.487,-0.065 2.426,-0.585 4.677,-0.78 0.739,-0.062 1.423,-0.004 1.772,0.061 0.392,0.069 0.294,0.4 -0.006,0.365 C 1.221,0.041 0.666,-0.061 0,0"
             style="fill:#173a79;fill-opacity:1;fill-rule:evenodd;stroke:none"
             id="path3319"
             inkscape:connector-curvature="0" /></g><g
           id="g3321"
           transform="translate(83.8984,730.7769)"><path
             d="m 0,0 c -2.212,0.162 -3.502,0.685 -4.987,0.745 -1.507,0.063 -2.492,-0.361 -2.737,-0.439 -0.31,-0.103 -0.178,-0.498 0.089,-0.394 0.244,0.095 1.241,0.468 2.61,0.427 1.514,-0.043 2.477,-0.538 4.765,-0.695 0.75,-0.048 1.445,0.023 1.8,0.092 C 1.936,-0.192 1.826,0.139 1.528,0.1 1.24,0.063 0.677,-0.051 0,0"
             style="fill:#173a79;fill-opacity:1;fill-rule:evenodd;stroke:none"
             id="path3323"
             inkscape:connector-curvature="0" /></g><g
           id="g3325"
           transform="translate(47.2778,722.4604)"><path
             d="M 0,0 C -0.439,0.431 -3.663,1.902 -3.721,1.747 -3.778,1.593 -3.63,1.414 -3.406,1.287 -2.664,0.861 -1.34,0.05 0,0"
             style="fill:#173a79;fill-opacity:1;fill-rule:evenodd;stroke:none"
             id="path3327"
             inkscape:connector-curvature="0" /></g><g
           id="g3329"
           transform="translate(44.7212,728.2939)"><path
             d="M 0,0 C -0.32,0.489 -2.99,2.534 -3.074,2.407 -3.163,2.279 -3.062,2.081 -2.884,1.918 -2.286,1.363 -1.236,0.331 0,0"
             style="fill:#173a79;fill-opacity:1;fill-rule:evenodd;stroke:none"
             id="path3331"
             inkscape:connector-curvature="0" /></g><g
           id="g3333"
           transform="translate(48.3213,723.2388)"><path
             d="M 0,0 C -0.049,0.617 0.904,4.028 1.059,3.972 1.213,3.917 1.255,3.695 1.208,3.441 1.054,2.595 0.83,1.059 0,0"
             style="fill:#173a79;fill-opacity:1;fill-rule:evenodd;stroke:none"
             id="path3335"
             inkscape:connector-curvature="0" /></g><g
           id="g3337"
           transform="translate(45.8252,728.6816)"><path
             d="M 0,0 C -0.064,0.583 0.722,3.853 0.87,3.807 1.021,3.761 1.064,3.547 1.033,3.303 0.917,2.5 0.75,1.031 0,0"
             style="fill:#173a79;fill-opacity:1;fill-rule:evenodd;stroke:none"
             id="path3339"
             inkscape:connector-curvature="0" /></g><g
           id="g3341"
           transform="translate(91.8457,720.0063)"><path
             d="M 0,0 C 0.475,0.388 3.815,1.568 3.859,1.407 3.902,1.253 3.74,1.088 3.507,0.985 2.726,0.622 1.343,-0.072 0,0"
             style="fill:#173a79;fill-opacity:1;fill-rule:evenodd;stroke:none"
             id="path3343"
             inkscape:connector-curvature="0" /></g><g
           id="g3345"
           transform="translate(94.9067,725.5884)"><path
             d="M 0,0 C 0.353,0.461 3.192,2.266 3.266,2.127 3.343,1.993 3.227,1.808 3.032,1.66 2.39,1.161 1.257,0.221 0,0"
             style="fill:#173a79;fill-opacity:1;fill-rule:evenodd;stroke:none"
             id="path3347"
             inkscape:connector-curvature="0" /></g><g
           id="g3349"
           transform="translate(93.8374,726.0732)"><path
             d="M 0,0 C 0.112,0.574 -0.388,3.901 -0.538,3.867 -0.69,3.834 -0.753,3.626 -0.741,3.381 -0.696,2.567 -0.661,1.096 0,0"
             style="fill:#173a79;fill-opacity:1;fill-rule:evenodd;stroke:none"
             id="path3351"
             inkscape:connector-curvature="0" /></g><g
           id="g3353"
           transform="translate(50.9565,716.8813)"><path
             d="M 0,0 C -0.539,0.353 -4.169,1.224 -4.196,1.054 -4.222,0.88 -4.038,0.728 -3.78,0.643 -2.924,0.353 -1.398,-0.219 0,0"
             style="fill:#173a79;fill-opacity:1;fill-rule:evenodd;stroke:none"
             id="path3355"
             inkscape:connector-curvature="0" /></g><g
           id="g3357"
           transform="translate(51.8613,717.9297)"><path
             d="M 0,0 C -0.097,0.61 0.55,4.093 0.708,4.051 0.869,4.01 0.928,3.79 0.906,3.53 0.828,2.681 0.735,1.131 0,0"
             style="fill:#173a79;fill-opacity:1;fill-rule:evenodd;stroke:none"
             id="path3359"
             inkscape:connector-curvature="0" /></g><g
           id="g3361"
           transform="translate(86.8848,715.894)"><path
             d="M 0,0 C 0.151,0.592 -0.193,4.116 -0.353,4.09 -0.517,4.063 -0.595,3.848 -0.595,3.591 -0.589,2.733 -0.634,1.182 0,0"
             style="fill:#173a79;fill-opacity:1;fill-rule:evenodd;stroke:none"
             id="path3363"
             inkscape:connector-curvature="0" /></g><g
           id="g3365"
           transform="translate(90.8721,720.8706)"><path
             d="M 0,0 C 0.102,0.603 -0.545,4.086 -0.706,4.047 -0.864,4.005 -0.925,3.784 -0.898,3.526 -0.823,2.673 -0.73,1.128 0,0"
             style="fill:#173a79;fill-opacity:1;fill-rule:evenodd;stroke:none"
             id="path3367"
             inkscape:connector-curvature="0" /></g><g
           id="g3369"
           transform="translate(87.6958,714.7656)"><path
             d="M 0,0 C 0.568,0.303 4.253,0.855 4.268,0.679 4.282,0.509 4.085,0.372 3.823,0.31 2.946,0.092 1.368,-0.345 0,0"
             style="fill:#173a79;fill-opacity:1;fill-rule:evenodd;stroke:none"
             id="path3371"
             inkscape:connector-curvature="0" /></g><g
           id="g3373"
           transform="translate(56.6943,738.9326)"><path
             d="m 0,0 c -0.504,-0.048 -1.159,-0.183 -1.812,-0.367 -0.63,-0.185 -1.204,-0.402 -1.658,-0.622 l 0.459,-1.429 c 0.93,0.585 1.685,0.904 2.023,0.878 0.401,-0.03 1.146,-0.305 1.409,-0.432 0.004,0.014 0.014,0.028 0.022,0.037 L 0,0 z"
             style="fill:#ffffff;fill-opacity:1;fill-rule:nonzero;stroke:none"
             id="path3375"
             inkscape:connector-curvature="0" /></g><g
           id="g3377"
           transform="translate(56.8467,739.5781)"><path
             d="m 0,0 c -0.422,0.269 -0.795,1.037 -0.916,2.069 -0.12,1.048 0.093,1.673 0.477,1.869 C -0.925,4.042 -1.762,3.955 -2.821,3.684 -2.191,3.599 -1.433,2.953 -1.152,2.026 -0.874,1.119 -1.063,0.245 -1.56,-0.222 -0.907,-0.062 -0.458,-0.005 0,0"
             style="fill:#ffffff;fill-opacity:1;fill-rule:nonzero;stroke:none"
             id="path3379"
             inkscape:connector-curvature="0" /></g><g
           id="g3381"
           transform="translate(52.3872,740.5537)"><path
             d="M 0,0 C 0.39,-0.966 0.374,-1.799 0.146,-2.261 0.53,-2.014 1.074,-1.762 1.741,-1.535 -0.447,-0.818 -0.249,1.883 0.52,2.382 -0.443,2.061 -1.018,1.73 -1.358,1.42 -0.925,1.386 -0.382,0.958 0,0"
             style="fill:#ffffff;fill-opacity:1;fill-rule:nonzero;stroke:none"
             id="path3383"
             inkscape:connector-curvature="0" /></g><g
           id="g3385"
           transform="translate(52.8535,740.7759)"><path
             d="M 0,0 C -0.28,0.93 0.016,1.827 0.665,2.003 1.311,2.181 2.065,1.567 2.345,0.638 2.628,-0.294 2.329,-1.188 1.681,-1.369 1.034,-1.545 0.285,-0.934 0,0"
             style="fill:#ffffff;fill-opacity:1;fill-rule:evenodd;stroke:none"
             id="path3387"
             inkscape:connector-curvature="0" /></g><g
           id="g3389"
           transform="translate(57.688,741.7432)"><path
             d="M 0,0 C -0.051,0.335 -0.212,0.531 -0.326,0.494 -0.448,0.462 -0.587,0.224 -0.531,-0.112 -0.474,-0.449 -0.33,-0.731 -0.082,-0.682 0,-0.662 0.061,-0.333 0,0"
             style="fill:#ffffff;fill-opacity:1;fill-rule:evenodd;stroke:none"
             id="path3391"
             inkscape:connector-curvature="0" /></g><g
           id="g3393"
           transform="translate(51.0576,738.9214)"><path
             d="M 0,0 C 0.063,-0.009 0.132,-0.002 0.192,0.016 0.531,0.121 0.587,0.564 0.456,1.066 0.343,1.489 -0.035,1.92 -0.371,1.815 -0.433,1.795 -0.511,1.741 -0.533,1.688 -0.556,2.183 -0.468,2.53 -0.24,2.608 0.12,2.725 0.686,2.125 0.996,1.166 1.308,0.208 1.291,-0.479 0.938,-0.597 0.693,-0.675 0.32,-0.456 0,0"
             style="fill:#ffffff;fill-opacity:1;fill-rule:evenodd;stroke:none"
             id="path3395"
             inkscape:connector-curvature="0" /></g><g
           id="g3397"
           transform="translate(50.5986,739.6382)"><path
             d="M 0,0 C -0.083,0.208 -0.106,0.402 -0.069,0.545 -0.05,0.622 -0.016,0.68 0.037,0.715 0.194,0.809 0.424,0.639 0.549,0.32 0.671,0.007 0.692,-0.324 0.522,-0.402 0.31,-0.506 0.083,-0.21 0,0"
             style="fill:#ffffff;fill-opacity:1;fill-rule:evenodd;stroke:none"
             id="path3399"
             inkscape:connector-curvature="0" /></g><g
           id="g3401"
           transform="translate(57.6572,740.7671)"><path
             d="m 0,0 c -0.032,-0.477 -0.173,-0.826 -0.38,-0.86 -0.32,-0.06 -0.712,0.621 -0.876,1.549 -0.164,0.932 -0.021,1.667 0.298,1.725 0.205,0.035 0.458,-0.22 0.641,-0.645 -0.054,0.006 -0.122,0.006 -0.18,0 C -0.843,1.716 -0.979,1.304 -0.88,0.791 -0.78,0.279 -0.497,-0.1 -0.148,-0.044 -0.107,-0.038 -0.038,-0.019 0,0"
             style="fill:#ffffff;fill-opacity:1;fill-rule:evenodd;stroke:none"
             id="path3403"
             inkscape:connector-curvature="0" /></g><g
           id="g3405"
           transform="translate(53.2188,740.8271)"><path
             d="M 0,0 C 0.219,-0.631 0.712,-0.823 1.073,-0.655 1.432,-0.495 1.542,0.066 1.303,0.59 1.026,1.195 0.581,1.291 0.25,1.138 -0.011,1.015 -0.189,0.541 0,0"
             style="fill:#173a79;fill-opacity:1;fill-rule:evenodd;stroke:none"
             id="path3407"
             inkscape:connector-curvature="0" /></g><g
           id="g3409"
           transform="translate(53.4976,740.8638)"><path
             d="M 0,0 C -0.131,0.338 -0.063,0.689 0.156,0.793 0.374,0.893 0.659,0.699 0.792,0.361 0.921,0.023 0.854,-0.333 0.64,-0.435 0.419,-0.532 0.135,-0.335 0,0"
             style="fill:#ffffff;fill-opacity:1;fill-rule:evenodd;stroke:none"
             id="path3411"
             inkscape:connector-curvature="0" /></g></g></g></g></svg>